<?xml version="1.0" encoding="UTF-8" standalone="no"?>
<!DOCTYPE svg PUBLIC "-//W3C//DTD SVG 1.1//EN"
 "http://www.w3.org/Graphics/SVG/1.1/DTD/svg11.dtd">
<!-- Generated by graphviz version 2.43.0 (0)
 -->
<!-- Title: G Pages: 1 -->
<svg width="1016pt" height="1151pt"
 viewBox="0.00 0.00 1016.39 1151.50" xmlns="http://www.w3.org/2000/svg" xmlns:xlink="http://www.w3.org/1999/xlink">
<g id="graph0" class="graph" transform="scale(1 1) rotate(0) translate(4 1147.5)">
<title>G</title>
<polygon fill="white" stroke="transparent" points="-4,4 -4,-1147.5 1012.39,-1147.5 1012.39,4 -4,4"/>
<!-- n0 -->
<g id="node1" class="node">
<title>n0</title>
<ellipse fill="none" stroke="black" cx="508" cy="-12.02" rx="52.15" ry="12.04"/>
<text text-anchor="middle" x="508" y="-10.12" font-family="Helvetica,sans-Serif" font-size="8.00">#i : iequality[]</text>
</g>
<!-- n1 -->
<g id="node2" class="node">
<title>n1</title>
<ellipse fill="none" stroke="black" cx="613" cy="-58.06" rx="173.48" ry="12.04"/>
<text text-anchor="middle" x="613" y="-56.16" font-family="Helvetica,sans-Serif" font-size="8.00">#vk : c_h[!KU( h(&lt;h(&lt;~ID, h(~x)&gt;), h(&lt;~PW, ~ns&gt;)&gt;) )]</text>
</g>
<!-- n1&#45;&gt;n0 -->
<g id="edge25" class="edge">
<title>n1&#45;&gt;n0</title>
<path fill="none" stroke="black" stroke-dasharray="1,5" d="M587.04,-46.18C573.1,-40.33 555.75,-33.05 540.87,-26.81"/>
<polygon fill="black" stroke="black" points="542.08,-23.52 531.51,-22.88 539.37,-29.98 542.08,-23.52"/>
</g>
<!-- n2 -->
<g id="node3" class="node">
<title>n2</title>
<ellipse fill="none" stroke="black" cx="493" cy="-518.48" rx="40.11" ry="12.04"/>
<text text-anchor="middle" x="493" y="-516.58" font-family="Helvetica,sans-Serif" font-size="8.00">#vl : irecv</text>
</g>
<!-- n10 -->
<g id="node7" class="node">
<title>n10</title>
<ellipse fill="none" stroke="black" cx="404" cy="-472.44" rx="55.31" ry="12.04"/>
<text text-anchor="middle" x="404" y="-470.54" font-family="Helvetica,sans-Serif" font-size="8.00">#vr.1 : d_0_snd</text>
</g>
<!-- n2&#45;&gt;n10 -->
<g id="edge1" class="edge">
<title>n2&#45;&gt;n10</title>
<path fill="none" stroke="#ee4000" d="M473.69,-507.92C462.09,-502.18 447.08,-494.76 433.97,-488.27"/>
<polygon fill="#ee4000" stroke="#ee4000" points="435.34,-485.04 424.83,-483.74 432.24,-491.32 435.34,-485.04"/>
</g>
<!-- n52 -->
<g id="node23" class="node">
<title>n52</title>
<ellipse fill="none" stroke="black" cx="538" cy="-380.35" rx="52.15" ry="12.04"/>
<text text-anchor="middle" x="538" y="-378.45" font-family="Helvetica,sans-Serif" font-size="8.00">#vr.9 : d_0_fst</text>
</g>
<!-- n2&#45;&gt;n52 -->
<g id="edge2" class="edge">
<title>n2&#45;&gt;n52</title>
<path fill="none" stroke="#ee4000" d="M494.14,-506.23C496.4,-486.82 502.46,-446.08 516,-414.37 517.99,-409.71 520.66,-405 523.44,-400.65"/>
<polygon fill="#ee4000" stroke="#ee4000" points="526.36,-402.59 529.16,-392.37 520.6,-398.61 526.36,-402.59"/>
</g>
<!-- n61 -->
<g id="node27" class="node">
<title>n61</title>
<ellipse fill="none" stroke="black" cx="586" cy="-472.44" rx="58.88" ry="12.04"/>
<text text-anchor="middle" x="586" y="-470.54" font-family="Helvetica,sans-Serif" font-size="8.00">#vr.13 : d_0_snd</text>
</g>
<!-- n2&#45;&gt;n61 -->
<g id="edge3" class="edge">
<title>n2&#45;&gt;n61</title>
<path fill="none" stroke="#ee4000" d="M513.18,-507.92C525.42,-502.13 541.29,-494.61 555.09,-488.08"/>
<polygon fill="#ee4000" stroke="#ee4000" points="556.7,-491.19 564.24,-483.74 553.7,-484.86 556.7,-491.19"/>
</g>
<!-- n7 -->
<g id="node4" class="node">
<title>n7</title>
<polygon fill="#cfd897" stroke="black" points="173.5,-553 173.5,-703 590.5,-703 590.5,-553 173.5,-553"/>
<text text-anchor="start" x="181.5" y="-692.6" font-family="Helvetica,sans-Serif" font-size="8.00">User_state2( ~ID, ~PW,</text>
<text text-anchor="start" x="181.5" y="-683.6" font-family="Helvetica,sans-Serif" font-size="8.00">             &lt;(h(&lt;~ID, h(~x)&gt;)⊕h(&lt;~PW, ~ns&gt;)), h(&lt;h(&lt;~ID, h(~x)&gt;), h(&lt;~PW, ~ns&gt;)&gt;), </text>
<text text-anchor="start" x="181.5" y="-674.6" font-family="Helvetica,sans-Serif" font-size="8.00">              (~ns⊕h(&lt;~ID, ~PW&gt;))&gt;</text>
<text text-anchor="start" x="181.5" y="-665.6" font-family="Helvetica,sans-Serif" font-size="8.00">)</text>
<polyline fill="none" stroke="black" points="173.5,-659 590.5,-659 "/>
<text text-anchor="start" x="181.5" y="-648.6" font-family="Helvetica,sans-Serif" font-size="8.00">#vr : SmartCardLost[Khave( ~ID, ~PW,</text>
<text text-anchor="start" x="181.5" y="-639.6" font-family="Helvetica,sans-Serif" font-size="8.00">                           &lt;(h(&lt;~ID, h(~x)&gt;)⊕h(&lt;~PW, ~ns&gt;)), h(&lt;h(&lt;~ID, h(~x)&gt;), h(&lt;~PW, ~ns&gt;)&gt;), </text>
<text text-anchor="start" x="181.5" y="-630.6" font-family="Helvetica,sans-Serif" font-size="8.00">                            (~ns⊕h(&lt;~ID, ~PW&gt;))&gt;</text>
<text text-anchor="start" x="181.5" y="-621.6" font-family="Helvetica,sans-Serif" font-size="8.00">                    ),</text>
<text text-anchor="start" x="181.5" y="-612.6" font-family="Helvetica,sans-Serif" font-size="8.00">                    Init_once( &#39;B&#39; )]</text>
<polyline fill="none" stroke="black" points="173.5,-606 590.5,-606 "/>
<text text-anchor="start" x="181.5" y="-595.6" font-family="Helvetica,sans-Serif" font-size="8.00">!Attacker_know( &lt;</text>
<text text-anchor="start" x="181.5" y="-586.6" font-family="Helvetica,sans-Serif" font-size="8.00">                 (h(&lt;~ID, h(~x)&gt;)⊕h(&lt;~PW, ~ns&gt;)), </text>
<text text-anchor="start" x="181.5" y="-577.6" font-family="Helvetica,sans-Serif" font-size="8.00">                 h(&lt;h(&lt;~ID, h(~x)&gt;), h(&lt;~PW, ~ns&gt;)&gt;), </text>
<text text-anchor="start" x="181.5" y="-568.6" font-family="Helvetica,sans-Serif" font-size="8.00">                 (~ns⊕h(&lt;~ID, ~PW&gt;))&gt;</text>
<text text-anchor="start" x="181.5" y="-559.6" font-family="Helvetica,sans-Serif" font-size="8.00">)</text>
<polyline fill="none" stroke="black" points="394.5,-553 394.5,-606 "/>
<text text-anchor="start" x="402.5" y="-591.1" font-family="Helvetica,sans-Serif" font-size="8.00">Out( &lt;(h(&lt;~ID, h(~x)&gt;)⊕h(&lt;~PW, ~ns&gt;)), </text>
<text text-anchor="start" x="402.5" y="-582.1" font-family="Helvetica,sans-Serif" font-size="8.00">      h(&lt;h(&lt;~ID, h(~x)&gt;), h(&lt;~PW, ~ns&gt;)&gt;), </text>
<text text-anchor="start" x="402.5" y="-573.1" font-family="Helvetica,sans-Serif" font-size="8.00">      (~ns⊕h(&lt;~ID, ~PW&gt;))&gt;</text>
<text text-anchor="start" x="402.5" y="-564.1" font-family="Helvetica,sans-Serif" font-size="8.00">)</text>
</g>
<!-- n7&#45;&gt;n2 -->
<g id="edge4" class="edge">
<title>n7:n6&#45;&gt;n2</title>
<path fill="none" stroke="#4d4d4d" d="M493,-552.5C493,-548.78 493,-544.81 493,-540.98"/>
<polygon fill="#4d4d4d" stroke="#4d4d4d" points="496.5,-540.79 493,-530.79 489.5,-540.79 496.5,-540.79"/>
</g>
<!-- n8 -->
<g id="node5" class="node">
<title>n8</title>
<ellipse fill="none" stroke="black" cx="616" cy="-104.1" rx="178.38" ry="12.04"/>
<text text-anchor="middle" x="616" y="-102.2" font-family="Helvetica,sans-Serif" font-size="8.00">#vk.1 : c_pair[!KU( &lt;h(&lt;~ID, h(~x)&gt;), h(&lt;~PW, ~ns&gt;)&gt; )]</text>
</g>
<!-- n8&#45;&gt;n1 -->
<g id="edge26" class="edge">
<title>n8&#45;&gt;n1</title>
<path fill="none" stroke="black" stroke-dasharray="1,5" d="M615.24,-91.99C615,-88.47 614.73,-84.45 614.46,-80.46"/>
<polygon fill="black" stroke="black" points="617.94,-80.06 613.77,-70.33 610.96,-80.54 617.94,-80.06"/>
</g>
<!-- n9 -->
<g id="node6" class="node">
<title>n9</title>
<ellipse fill="none" stroke="black" cx="791" cy="-810" rx="45.92" ry="12.04"/>
<text text-anchor="middle" x="791" y="-808.1" font-family="Helvetica,sans-Serif" font-size="8.00">#vl.1 : irecv</text>
</g>
<!-- n60 -->
<g id="node26" class="node">
<title>n60</title>
<ellipse fill="none" stroke="black" cx="891" cy="-628" rx="58.88" ry="12.04"/>
<text text-anchor="middle" x="891" y="-626.1" font-family="Helvetica,sans-Serif" font-size="8.00">#vr.12 : d_0_snd</text>
</g>
<!-- n9&#45;&gt;n60 -->
<g id="edge5" class="edge">
<title>n9&#45;&gt;n60</title>
<path fill="none" stroke="#ee4000" d="M797.1,-798.01C813.45,-768.58 858.42,-687.64 879.64,-649.45"/>
<polygon fill="#ee4000" stroke="#ee4000" points="882.92,-650.75 884.72,-640.3 876.8,-647.35 882.92,-650.75"/>
</g>
<!-- n64 -->
<g id="node30" class="node">
<title>n64</title>
<ellipse fill="none" stroke="black" cx="739" cy="-628" rx="55.72" ry="12.04"/>
<text text-anchor="middle" x="739" y="-626.1" font-family="Helvetica,sans-Serif" font-size="8.00">#vr.16 : d_0_fst</text>
</g>
<!-- n9&#45;&gt;n64 -->
<g id="edge6" class="edge">
<title>n9&#45;&gt;n64</title>
<path fill="none" stroke="#ee4000" d="M787.75,-797.74C779.25,-768.32 756.27,-688.77 745.17,-650.34"/>
<polygon fill="#ee4000" stroke="#ee4000" points="748.39,-648.89 742.25,-640.26 741.66,-650.83 748.39,-648.89"/>
</g>
<!-- n12 -->
<g id="node9" class="node">
<title>n12</title>
<ellipse fill="none" stroke="black" cx="404" cy="-334.31" rx="52.15" ry="12.04"/>
<text text-anchor="middle" x="404" y="-332.41" font-family="Helvetica,sans-Serif" font-size="8.00">#vr.2 : d_0_fst</text>
</g>
<!-- n10&#45;&gt;n12 -->
<g id="edge7" class="edge">
<title>n10&#45;&gt;n12</title>
<path fill="none" stroke="#ee4000" d="M404,-460.3C404,-437.66 404,-385.96 404,-356.64"/>
<polygon fill="#ee4000" stroke="#ee4000" points="407.5,-356.61 404,-346.61 400.5,-356.61 407.5,-356.61"/>
</g>
<!-- n11 -->
<g id="node8" class="node">
<title>n11</title>
<ellipse fill="none" stroke="black" cx="588" cy="-150.15" rx="122.16" ry="12.04"/>
<text text-anchor="middle" x="588" y="-148.25" font-family="Helvetica,sans-Serif" font-size="8.00">#vk.2 : coerce[!KU( h(&lt;~ID, h(~x)&gt;) )]</text>
</g>
<!-- n11&#45;&gt;n8 -->
<g id="edge27" class="edge">
<title>n11&#45;&gt;n8</title>
<path fill="none" stroke="black" stroke-dasharray="1,5" d="M595.07,-138.03C597.57,-134.1 600.46,-129.54 603.29,-125.1"/>
<polygon fill="black" stroke="black" points="606.43,-126.68 608.84,-116.37 600.52,-122.93 606.43,-126.68"/>
</g>
<!-- n12&#45;&gt;n0 -->
<g id="edge8" class="edge">
<title>n12&#45;&gt;n0</title>
<path fill="none" stroke="#ee4000" d="M404,-322.22C404,-305.22 404,-271.69 404,-243.23 404,-243.23 404,-243.23 404,-103.1 404,-75.42 409.26,-65.45 429,-46.04 438.71,-36.49 451.6,-29.55 464.13,-24.57"/>
<polygon fill="#ee4000" stroke="#ee4000" points="465.39,-27.83 473.6,-21.13 463,-21.25 465.39,-27.83"/>
</g>
<!-- n13 -->
<g id="node10" class="node">
<title>n13</title>
<ellipse fill="none" stroke="black" cx="744" cy="-242.23" rx="111.03" ry="12.04"/>
<text text-anchor="middle" x="744" y="-240.33" font-family="Helvetica,sans-Serif" font-size="8.00">#vk.3 : c_h[!KU( h(&lt;~PW, ~ns&gt;) )]</text>
</g>
<!-- n13&#45;&gt;n8 -->
<g id="edge28" class="edge">
<title>n13&#45;&gt;n8</title>
<path fill="none" stroke="black" stroke-dasharray="1,5" d="M744.87,-229.98C745.85,-209.09 744.82,-164.06 721,-138.12 713.48,-129.93 703.95,-123.76 693.72,-119.11"/>
<polygon fill="black" stroke="black" points="694.75,-115.75 684.16,-115.26 692.13,-122.24 694.75,-115.75"/>
</g>
<!-- n53 -->
<g id="node24" class="node">
<title>n53</title>
<ellipse fill="none" stroke="black" cx="588" cy="-196.19" rx="50.82" ry="12.04"/>
<text text-anchor="middle" x="588" y="-194.29" font-family="Helvetica,sans-Serif" font-size="8.00">#vr.10 : d_xor</text>
</g>
<!-- n13&#45;&gt;n53 -->
<g id="edge29" class="edge">
<title>n13&#45;&gt;n53</title>
<path fill="none" stroke="black" stroke-dasharray="1,5" d="M707.03,-230.79C683.35,-224.11 652.62,-215.43 628.32,-208.57"/>
<polygon fill="black" stroke="black" points="629.25,-205.2 618.67,-205.85 627.35,-211.93 629.25,-205.2"/>
</g>
<!-- n19 -->
<g id="node11" class="node">
<title>n19</title>
<polygon fill="#c5da98" stroke="black" points="52,-726 52,-894 496,-894 496,-726 52,-726"/>
<text text-anchor="start" x="60" y="-883.6" font-family="Helvetica,sans-Serif" font-size="8.00">Out_S2( $Server, $User,</text>
<text text-anchor="start" x="60" y="-874.6" font-family="Helvetica,sans-Serif" font-size="8.00">        &lt;(h(&lt;~ID, h(~x)&gt;)⊕h(&lt;~PW, ~ns&gt;)), h(&lt;h(&lt;~ID, h(~x)&gt;), h(&lt;~PW, ~ns&gt;)&gt;), </text>
<text text-anchor="start" x="60" y="-865.6" font-family="Helvetica,sans-Serif" font-size="8.00">         (~ns⊕h(&lt;~ID, ~PW&gt;))&gt;</text>
<text text-anchor="start" x="60" y="-856.6" font-family="Helvetica,sans-Serif" font-size="8.00">)</text>
<polyline fill="none" stroke="black" points="408,-850 408,-894 "/>
<text text-anchor="start" x="416" y="-879.1" font-family="Helvetica,sans-Serif" font-size="8.00">User_state1( ~ID,</text>
<text text-anchor="start" x="416" y="-870.1" font-family="Helvetica,sans-Serif" font-size="8.00">             ~PW</text>
<text text-anchor="start" x="416" y="-861.1" font-family="Helvetica,sans-Serif" font-size="8.00">)</text>
<polyline fill="none" stroke="black" points="52,-850 496,-850 "/>
<text text-anchor="start" x="60" y="-839.6" font-family="Helvetica,sans-Serif" font-size="8.00">#vr.3 : User_Login[Eq( h(&lt;h(&lt;~ID, h(~x)&gt;), h(&lt;~PW, ~ns&gt;)&gt;),</text>
<text text-anchor="start" x="60" y="-830.6" font-family="Helvetica,sans-Serif" font-size="8.00">                       h(&lt;h(&lt;~ID, h(~x)&gt;), h(&lt;~PW, ~ns&gt;)&gt;)</text>
<text text-anchor="start" x="60" y="-821.6" font-family="Helvetica,sans-Serif" font-size="8.00">                   ),</text>
<text text-anchor="start" x="60" y="-812.6" font-family="Helvetica,sans-Serif" font-size="8.00">                   Finish( ~ID, ~PW,</text>
<text text-anchor="start" x="60" y="-803.6" font-family="Helvetica,sans-Serif" font-size="8.00">                           &lt;(h(&lt;~ID, h(~x)&gt;)⊕h(&lt;~PW, ~ns&gt;)), h(&lt;h(&lt;~ID, h(~x)&gt;), h(&lt;~PW, ~ns&gt;)&gt;), </text>
<text text-anchor="start" x="60" y="-794.6" font-family="Helvetica,sans-Serif" font-size="8.00">                            (~ns⊕h(&lt;~ID, ~PW&gt;))&gt;</text>
<text text-anchor="start" x="60" y="-785.6" font-family="Helvetica,sans-Serif" font-size="8.00">                   )]</text>
<polyline fill="none" stroke="black" points="52,-779 496,-779 "/>
<text text-anchor="start" x="60" y="-768.6" font-family="Helvetica,sans-Serif" font-size="8.00">Out_S3( $User, $SC,</text>
<text text-anchor="start" x="60" y="-759.6" font-family="Helvetica,sans-Serif" font-size="8.00">        &lt;(h(&lt;~ID, h(~x)&gt;)⊕h(&lt;~PW, ~ns&gt;)), </text>
<text text-anchor="start" x="60" y="-750.6" font-family="Helvetica,sans-Serif" font-size="8.00">         h(&lt;h(&lt;~ID, h(~x)&gt;), h(&lt;~PW, ~ns&gt;)&gt;), </text>
<text text-anchor="start" x="60" y="-741.6" font-family="Helvetica,sans-Serif" font-size="8.00">         (~ns⊕h(&lt;~ID, ~PW&gt;))&gt;</text>
<text text-anchor="start" x="60" y="-732.6" font-family="Helvetica,sans-Serif" font-size="8.00">)</text>
<polyline fill="none" stroke="black" points="268,-726 268,-779 "/>
<text text-anchor="start" x="276" y="-768.6" font-family="Helvetica,sans-Serif" font-size="8.00">User_state2( ~ID, ~PW,</text>
<text text-anchor="start" x="276" y="-759.6" font-family="Helvetica,sans-Serif" font-size="8.00">             &lt;(h(&lt;~ID, h(~x)&gt;)⊕h(&lt;~PW, ~ns&gt;)), </text>
<text text-anchor="start" x="276" y="-750.6" font-family="Helvetica,sans-Serif" font-size="8.00">              h(&lt;h(&lt;~ID, h(~x)&gt;), h(&lt;~PW, ~ns&gt;)&gt;), </text>
<text text-anchor="start" x="276" y="-741.6" font-family="Helvetica,sans-Serif" font-size="8.00">              (~ns⊕h(&lt;~ID, ~PW&gt;))&gt;</text>
<text text-anchor="start" x="276" y="-732.6" font-family="Helvetica,sans-Serif" font-size="8.00">)</text>
</g>
<!-- n19&#45;&gt;n7 -->
<g id="edge9" class="edge">
<title>n19:n18&#45;&gt;n7:n3</title>
<path fill="none" stroke="black" stroke-width="2" d="M382,-725.5C382,-720.15 382,-717 382,-713.64"/>
<polygon fill="black" stroke="black" stroke-width="2" points="385.5,-713.5 382,-703.5 378.5,-713.5 385.5,-713.5"/>
</g>
<!-- n20 -->
<g id="node12" class="node">
<title>n20</title>
<ellipse fill="none" stroke="black" cx="760" cy="-288.27" rx="110.12" ry="12.04"/>
<text text-anchor="middle" x="760" y="-286.37" font-family="Helvetica,sans-Serif" font-size="8.00">#vk.4 : c_pair[!KU( &lt;~PW, ~ns&gt; )]</text>
</g>
<!-- n20&#45;&gt;n13 -->
<g id="edge30" class="edge">
<title>n20&#45;&gt;n13</title>
<path fill="none" stroke="black" stroke-dasharray="1,5" d="M755.96,-276.16C754.61,-272.43 753.05,-268.15 751.52,-263.93"/>
<polygon fill="black" stroke="black" points="754.8,-262.7 748.09,-254.49 748.22,-265.09 754.8,-262.7"/>
</g>
<!-- n27 -->
<g id="node13" class="node">
<title>n27</title>
<polygon fill="#bfda99" stroke="black" points="27,-917 27,-995 433,-995 433,-917 27,-917"/>
<text text-anchor="middle" x="86" y="-984.6" font-family="Helvetica,sans-Serif" font-size="8.00">Own_server( ~x )</text>
<polyline fill="none" stroke="black" points="145,-978 145,-995 "/>
<text text-anchor="middle" x="247.5" y="-984.6" font-family="Helvetica,sans-Serif" font-size="8.00">Out_S1( $User, $Server, &lt;~ID, ~PW&gt; )</text>
<polyline fill="none" stroke="black" points="350,-978 350,-995 "/>
<text text-anchor="middle" x="391.5" y="-984.6" font-family="Helvetica,sans-Serif" font-size="8.00">Fr( ~ns )</text>
<polyline fill="none" stroke="black" points="27,-978 433,-978 "/>
<text text-anchor="middle" x="230" y="-967.6" font-family="Helvetica,sans-Serif" font-size="8.00">#vr.4 : Regist_Server[]</text>
<polyline fill="none" stroke="black" points="27,-961 433,-961 "/>
<text text-anchor="start" x="35" y="-950.6" font-family="Helvetica,sans-Serif" font-size="8.00">Out_S2( $Server, $User,</text>
<text text-anchor="start" x="35" y="-941.6" font-family="Helvetica,sans-Serif" font-size="8.00">        &lt;(h(&lt;~ID, h(~x)&gt;)⊕h(&lt;~PW, ~ns&gt;)), </text>
<text text-anchor="start" x="35" y="-932.6" font-family="Helvetica,sans-Serif" font-size="8.00">         h(&lt;h(&lt;~ID, h(~x)&gt;), h(&lt;~PW, ~ns&gt;)&gt;), (~ns⊕h(&lt;~ID, ~PW&gt;))&gt;</text>
<text text-anchor="start" x="35" y="-923.6" font-family="Helvetica,sans-Serif" font-size="8.00">)</text>
<polyline fill="none" stroke="black" points="329,-917 329,-961 "/>
<text text-anchor="start" x="337" y="-950.6" font-family="Helvetica,sans-Serif" font-size="8.00">Server_state1( ~x,</text>
<text text-anchor="start" x="337" y="-941.6" font-family="Helvetica,sans-Serif" font-size="8.00">               h(h(h(&lt;~ID, </text>
<text text-anchor="start" x="337" y="-932.6" font-family="Helvetica,sans-Serif" font-size="8.00">                      h(~x)&gt;)))</text>
<text text-anchor="start" x="337" y="-923.6" font-family="Helvetica,sans-Serif" font-size="8.00">)</text>
</g>
<!-- n27&#45;&gt;n19 -->
<g id="edge10" class="edge">
<title>n27:n25&#45;&gt;n19:n14</title>
<path fill="none" stroke="black" stroke-width="2" d="M178,-916.5C178,-895.91 212.99,-911.18 225.57,-903.48"/>
<polygon fill="black" stroke="black" stroke-width="2" points="228.71,-905.02 230,-894.5 222.44,-901.92 228.71,-905.02"/>
</g>
<!-- n28 -->
<g id="node14" class="node">
<title>n28</title>
<ellipse fill="none" stroke="black" cx="920" cy="-518.48" rx="88.28" ry="12.04"/>
<text text-anchor="middle" x="920" y="-516.58" font-family="Helvetica,sans-Serif" font-size="8.00">#vk.5 : coerce[!KU( ~PW )]</text>
</g>
<!-- n28&#45;&gt;n20 -->
<g id="edge31" class="edge">
<title>n28&#45;&gt;n20</title>
<path fill="none" stroke="black" stroke-dasharray="1,5" d="M920,-506.38C920,-489.38 920,-455.86 920,-427.4 920,-427.4 920,-427.4 920,-379.35 920,-335.29 873.35,-312.55 830.43,-300.95"/>
<polygon fill="black" stroke="black" points="831.04,-297.49 820.49,-298.43 829.33,-304.28 831.04,-297.49"/>
</g>
<!-- n45 -->
<g id="node20" class="node">
<title>n45</title>
<ellipse fill="none" stroke="black" cx="776" cy="-472.44" rx="109.7" ry="12.04"/>
<text text-anchor="middle" x="776" y="-470.54" font-family="Helvetica,sans-Serif" font-size="8.00">#vk.8 : c_pair[!KU( &lt;~ID, ~PW&gt; )]</text>
</g>
<!-- n28&#45;&gt;n45 -->
<g id="edge32" class="edge">
<title>n28&#45;&gt;n45</title>
<path fill="none" stroke="black" stroke-dasharray="1,5" d="M886.6,-507.26C866.81,-501.21 841.48,-493.46 820.06,-486.91"/>
<polygon fill="black" stroke="black" points="820.8,-483.48 810.22,-483.9 818.76,-490.17 820.8,-483.48"/>
</g>
<!-- n33 -->
<g id="node15" class="node">
<title>n33</title>
<polygon fill="#afdc9a" stroke="black" points="455.5,-930.5 455.5,-981.5 756.5,-981.5 756.5,-930.5 455.5,-930.5"/>
<text text-anchor="middle" x="606" y="-971.1" font-family="Helvetica,sans-Serif" font-size="8.00">!Own_User( ~ID, ~PW )</text>
<polyline fill="none" stroke="black" points="455.5,-964.5 756.5,-964.5 "/>
<text text-anchor="middle" x="606" y="-954.1" font-family="Helvetica,sans-Serif" font-size="8.00">#vr.5 : Regist_User[]</text>
<polyline fill="none" stroke="black" points="455.5,-947.5 756.5,-947.5 "/>
<text text-anchor="middle" x="548.5" y="-937.1" font-family="Helvetica,sans-Serif" font-size="8.00">Out_S1( $User.1, $Server.1, &lt;~ID, ~PW&gt; )</text>
<polyline fill="none" stroke="black" points="641.5,-930.5 641.5,-947.5 "/>
<text text-anchor="middle" x="699" y="-937.1" font-family="Helvetica,sans-Serif" font-size="8.00">User_state1( ~ID, ~PW )</text>
</g>
<!-- n33&#45;&gt;n19 -->
<g id="edge11" class="edge">
<title>n33:n32&#45;&gt;n19:n15</title>
<path fill="none" stroke="black" stroke-width="2" d="M699,-929C699,-885.36 563.02,-873.49 507.3,-872.14"/>
<polygon fill="black" stroke="black" stroke-width="2" points="507.05,-868.63 497,-872 506.95,-875.63 507.05,-868.63"/>
</g>
<!-- n34 -->
<g id="node16" class="node">
<title>n34</title>
<ellipse fill="none" stroke="black" cx="760" cy="-334.31" rx="86.03" ry="12.04"/>
<text text-anchor="middle" x="760" y="-332.41" font-family="Helvetica,sans-Serif" font-size="8.00">#vk.6 : coerce[!KU( ~ns )]</text>
</g>
<!-- n34&#45;&gt;n20 -->
<g id="edge33" class="edge">
<title>n34&#45;&gt;n20</title>
<path fill="none" stroke="black" stroke-dasharray="1,5" d="M760,-322.2C760,-318.68 760,-314.66 760,-310.67"/>
<polygon fill="black" stroke="black" points="763.5,-310.53 760,-300.53 756.5,-310.53 763.5,-310.53"/>
</g>
<!-- n38 -->
<g id="node17" class="node">
<title>n38</title>
<polygon fill="#b4db99" stroke="black" points="0,-1018 0,-1069 172,-1069 172,-1018 0,-1018"/>
<text text-anchor="middle" x="86" y="-1058.6" font-family="Helvetica,sans-Serif" font-size="8.00">Fr( ~x )</text>
<polyline fill="none" stroke="black" points="0,-1052 172,-1052 "/>
<text text-anchor="middle" x="86" y="-1041.6" font-family="Helvetica,sans-Serif" font-size="8.00">#vr.6 : Server_init[Init_once( &#39;Server&#39; )]</text>
<polyline fill="none" stroke="black" points="0,-1035 172,-1035 "/>
<text text-anchor="middle" x="86" y="-1024.6" font-family="Helvetica,sans-Serif" font-size="8.00">Own_server( ~x )</text>
</g>
<!-- n38&#45;&gt;n27 -->
<g id="edge12" class="edge">
<title>n38:n37&#45;&gt;n27:n21</title>
<path fill="none" stroke="black" stroke-width="2" d="M173,-1026.5C177.02,-1026.5 174.64,-1020.54 172,-1017.5 148.95,-990.98 98.74,-1025.54 88.03,-1005.55"/>
<polygon fill="black" stroke="black" stroke-width="2" points="91.41,-1004.61 86,-995.5 84.55,-1006 91.41,-1004.61"/>
</g>
<!-- n39 -->
<g id="node18" class="node">
<title>n39</title>
<ellipse fill="none" stroke="black" cx="776" cy="-426.4" rx="109.7" ry="12.04"/>
<text text-anchor="middle" x="776" y="-424.5" font-family="Helvetica,sans-Serif" font-size="8.00">#vk.7 : c_h[!KU( h(&lt;~ID, ~PW&gt;) )]</text>
</g>
<!-- n63 -->
<g id="node29" class="node">
<title>n63</title>
<ellipse fill="none" stroke="black" cx="760" cy="-380.35" rx="50.82" ry="12.04"/>
<text text-anchor="middle" x="760" y="-378.45" font-family="Helvetica,sans-Serif" font-size="8.00">#vr.15 : d_xor</text>
</g>
<!-- n39&#45;&gt;n63 -->
<g id="edge34" class="edge">
<title>n39&#45;&gt;n63</title>
<path fill="none" stroke="black" stroke-dasharray="1,5" d="M771.96,-414.28C770.61,-410.56 769.05,-406.27 767.52,-402.05"/>
<polygon fill="black" stroke="black" points="770.8,-400.82 764.09,-392.62 764.22,-403.21 770.8,-400.82"/>
</g>
<!-- n44 -->
<g id="node19" class="node">
<title>n44</title>
<polygon fill="#afdc9a" stroke="black" points="239,-1018 239,-1069 527,-1069 527,-1018 239,-1018"/>
<text text-anchor="middle" x="383" y="-1058.6" font-family="Helvetica,sans-Serif" font-size="8.00">!Own_User( ~ID, ~PW )</text>
<polyline fill="none" stroke="black" points="239,-1052 527,-1052 "/>
<text text-anchor="middle" x="383" y="-1041.6" font-family="Helvetica,sans-Serif" font-size="8.00">#vr.7 : Regist_User[]</text>
<polyline fill="none" stroke="black" points="239,-1035 527,-1035 "/>
<text text-anchor="middle" x="325.5" y="-1024.6" font-family="Helvetica,sans-Serif" font-size="8.00">Out_S1( $User, $Server, &lt;~ID, ~PW&gt; )</text>
<polyline fill="none" stroke="black" points="412,-1018 412,-1035 "/>
<text text-anchor="middle" x="469.5" y="-1024.6" font-family="Helvetica,sans-Serif" font-size="8.00">User_state1( ~ID, ~PW )</text>
</g>
<!-- n44&#45;&gt;n27 -->
<g id="edge13" class="edge">
<title>n44:n42&#45;&gt;n27:n22</title>
<path fill="none" stroke="black" stroke-width="2" d="M238,-1026.5C233.98,-1026.5 238.01,-1021.4 239,-1017.5 240.51,-1011.58 243.28,-1008.68 245.35,-1005.25"/>
<polygon fill="black" stroke="black" stroke-width="2" points="248.76,-1006.07 248,-995.5 242,-1004.23 248.76,-1006.07"/>
</g>
<!-- n45&#45;&gt;n39 -->
<g id="edge35" class="edge">
<title>n45&#45;&gt;n39</title>
<path fill="none" stroke="black" stroke-dasharray="1,5" d="M776,-460.32C776,-456.8 776,-452.79 776,-448.8"/>
<polygon fill="black" stroke="black" points="779.5,-448.66 776,-438.66 772.5,-448.66 779.5,-448.66"/>
</g>
<!-- n50 -->
<g id="node21" class="node">
<title>n50</title>
<polygon fill="#a9dc9a" stroke="black" points="527.5,-1092 527.5,-1143 684.5,-1143 684.5,-1092 527.5,-1092"/>
<text text-anchor="middle" x="565.5" y="-1132.6" font-family="Helvetica,sans-Serif" font-size="8.00">Fr( ~ID )</text>
<polyline fill="none" stroke="black" points="603.5,-1126 603.5,-1143 "/>
<text text-anchor="middle" x="644" y="-1132.6" font-family="Helvetica,sans-Serif" font-size="8.00">Fr( ~PW )</text>
<polyline fill="none" stroke="black" points="527.5,-1126 684.5,-1126 "/>
<text text-anchor="middle" x="606" y="-1115.6" font-family="Helvetica,sans-Serif" font-size="8.00">#vr.8 : User_init[Init_once( &#39;User&#39; )]</text>
<polyline fill="none" stroke="black" points="527.5,-1109 684.5,-1109 "/>
<text text-anchor="middle" x="606" y="-1098.6" font-family="Helvetica,sans-Serif" font-size="8.00">!Own_User( ~ID, ~PW )</text>
</g>
<!-- n50&#45;&gt;n33 -->
<g id="edge14" class="edge">
<title>n50:n49&#45;&gt;n33:n29</title>
<path fill="none" stroke="#7f7f7f" stroke-width="2" d="M606,-1091.5C606,-1046.86 606,-1033.21 606,-993.17"/>
<polygon fill="#7f7f7f" stroke="#7f7f7f" stroke-width="2" points="609.5,-993 606,-983 602.5,-993 609.5,-993"/>
</g>
<!-- n50&#45;&gt;n44 -->
<g id="edge15" class="edge">
<title>n50:n49&#45;&gt;n44:n40</title>
<path fill="none" stroke="#7f7f7f" stroke-width="2" d="M526,-1100.5C513.76,-1100.5 527.71,-1081.59 531.84,-1069.78"/>
<polygon fill="#7f7f7f" stroke="#7f7f7f" stroke-width="2" points="535.06,-1068.4 528,-1060.5 528.59,-1071.08 535.06,-1068.4"/>
</g>
<!-- n59 -->
<g id="node25" class="node">
<title>n59</title>
<polygon fill="#a4dd9b" stroke="black" points="640,-1018 640,-1069 848,-1069 848,-1018 640,-1018"/>
<text text-anchor="middle" x="695" y="-1058.6" font-family="Helvetica,sans-Serif" font-size="8.00">!Own_User( ~ID, ~PW )</text>
<polyline fill="none" stroke="black" points="750,-1052 750,-1069 "/>
<text text-anchor="middle" x="776.5" y="-1058.6" font-family="Helvetica,sans-Serif" font-size="8.00">Fr( ~x.1 )</text>
<polyline fill="none" stroke="black" points="803,-1052 803,-1069 "/>
<text text-anchor="middle" x="825.5" y="-1058.6" font-family="Helvetica,sans-Serif" font-size="8.00">Fr( ~y )</text>
<polyline fill="none" stroke="black" points="640,-1052 848,-1052 "/>
<text text-anchor="middle" x="744" y="-1041.6" font-family="Helvetica,sans-Serif" font-size="8.00">#vr.11 : Password_guess[Init_once( &#39;Guess&#39; )]</text>
<polyline fill="none" stroke="black" points="640,-1035 848,-1035 "/>
<text text-anchor="middle" x="744" y="-1024.6" font-family="Helvetica,sans-Serif" font-size="8.00">Out( &lt;~ID, ~PW&gt; )</text>
</g>
<!-- n50&#45;&gt;n59 -->
<g id="edge16" class="edge">
<title>n50:n49&#45;&gt;n59:n54</title>
<path fill="none" stroke="#7f7f7f" stroke-width="2" d="M686,-1100.5C690.02,-1100.5 687.32,-1094.79 685,-1091.5 673.89,-1075.71 657.84,-1084.45 644.77,-1069.31"/>
<polygon fill="#7f7f7f" stroke="#7f7f7f" stroke-width="2" points="647.41,-1066.95 639,-1060.5 641.55,-1070.78 647.41,-1066.95"/>
</g>
<!-- n51 -->
<g id="node22" class="node">
<title>n51</title>
<ellipse fill="none" stroke="black" cx="724" cy="-518.48" rx="85.62" ry="12.04"/>
<text text-anchor="middle" x="724" y="-516.58" font-family="Helvetica,sans-Serif" font-size="8.00">#vk.9 : coerce[!KU( ~ID )]</text>
</g>
<!-- n51&#45;&gt;n45 -->
<g id="edge36" class="edge">
<title>n51&#45;&gt;n45</title>
<path fill="none" stroke="black" stroke-dasharray="1,5" d="M736.85,-506.59C742.31,-501.97 748.82,-496.46 754.95,-491.27"/>
<polygon fill="black" stroke="black" points="757.56,-493.64 762.93,-484.5 753.04,-488.3 757.56,-493.64"/>
</g>
<!-- n52&#45;&gt;n53 -->
<g id="edge17" class="edge">
<title>n52&#45;&gt;n53</title>
<path fill="none" stroke="#ee4000" d="M541.05,-368.23C549.19,-338.58 571.52,-257.23 582.18,-218.38"/>
<polygon fill="#ee4000" stroke="#ee4000" points="585.59,-219.2 584.86,-208.63 578.84,-217.34 585.59,-219.2"/>
</g>
<!-- n53&#45;&gt;n11 -->
<g id="edge18" class="edge">
<title>n53&#45;&gt;n11</title>
<path fill="none" stroke="#ee4000" d="M588,-184.07C588,-180.55 588,-176.54 588,-172.55"/>
<polygon fill="#ee4000" stroke="#ee4000" points="591.5,-172.41 588,-162.41 584.5,-172.41 591.5,-172.41"/>
</g>
<!-- n59&#45;&gt;n9 -->
<g id="edge19" class="edge">
<title>n59:n58&#45;&gt;n9</title>
<path fill="none" stroke="#4d4d4d" d="M744,-1017.5C744,-1003.03 761.36,-1008.36 768,-995.5 795.65,-941.92 795.2,-868.31 792.93,-832.42"/>
<polygon fill="#4d4d4d" stroke="#4d4d4d" points="796.4,-831.88 792.16,-822.16 789.42,-832.4 796.4,-831.88"/>
</g>
<!-- n60&#45;&gt;n28 -->
<g id="edge20" class="edge">
<title>n60&#45;&gt;n28</title>
<path fill="none" stroke="#ee4000" d="M893.99,-615.9C898.79,-598.11 908.28,-562.94 914.37,-540.35"/>
<polygon fill="#ee4000" stroke="#ee4000" points="917.75,-541.25 916.98,-530.68 911,-539.42 917.75,-541.25"/>
</g>
<!-- n62 -->
<g id="node28" class="node">
<title>n62</title>
<ellipse fill="none" stroke="black" cx="586" cy="-426.4" rx="58.88" ry="12.04"/>
<text text-anchor="middle" x="586" y="-424.5" font-family="Helvetica,sans-Serif" font-size="8.00">#vr.14 : d_0_snd</text>
</g>
<!-- n61&#45;&gt;n62 -->
<g id="edge21" class="edge">
<title>n61&#45;&gt;n62</title>
<path fill="none" stroke="#ee4000" d="M586,-460.32C586,-456.8 586,-452.79 586,-448.8"/>
<polygon fill="#ee4000" stroke="#ee4000" points="589.5,-448.66 586,-438.66 582.5,-448.66 589.5,-448.66"/>
</g>
<!-- n62&#45;&gt;n63 -->
<g id="edge22" class="edge">
<title>n62&#45;&gt;n63</title>
<path fill="none" stroke="#ee4000" d="M620.79,-416.59C648.56,-409.56 687.59,-399.68 717.26,-392.17"/>
<polygon fill="#ee4000" stroke="#ee4000" points="718.49,-395.47 727.33,-389.62 716.77,-388.68 718.49,-395.47"/>
</g>
<!-- n63&#45;&gt;n34 -->
<g id="edge23" class="edge">
<title>n63&#45;&gt;n34</title>
<path fill="none" stroke="#ee4000" d="M760,-368.24C760,-364.72 760,-360.7 760,-356.71"/>
<polygon fill="#ee4000" stroke="#ee4000" points="763.5,-356.58 760,-346.58 756.5,-356.58 763.5,-356.58"/>
</g>
<!-- n64&#45;&gt;n51 -->
<g id="edge24" class="edge">
<title>n64&#45;&gt;n51</title>
<path fill="none" stroke="#ee4000" d="M737.45,-615.9C734.98,-598.19 730.11,-563.26 726.95,-540.66"/>
<polygon fill="#ee4000" stroke="#ee4000" points="730.41,-540.1 725.56,-530.68 723.48,-541.07 730.41,-540.1"/>
</g>
</g>
</svg>
