<?xml version="1.0" encoding="UTF-8" standalone="no"?>
<!DOCTYPE svg PUBLIC "-//W3C//DTD SVG 1.1//EN"
 "http://www.w3.org/Graphics/SVG/1.1/DTD/svg11.dtd">
<!-- Generated by graphviz version 2.43.0 (0)
 -->
<!-- Title: G Pages: 1 -->
<svg width="1252pt" height="1144pt"
 viewBox="0.00 0.00 1251.65 1143.71" xmlns="http://www.w3.org/2000/svg" xmlns:xlink="http://www.w3.org/1999/xlink">
<g id="graph0" class="graph" transform="scale(1 1) rotate(0) translate(4 1139.71)">
<title>G</title>
<polygon fill="white" stroke="transparent" points="-4,4 -4,-1139.71 1247.65,-1139.71 1247.65,4 -4,4"/>
<!-- n0 -->
<g id="node1" class="node">
<title>n0</title>
<ellipse fill="none" stroke="black" cx="907.15" cy="-12.02" rx="52.15" ry="12.04"/>
<text text-anchor="middle" x="907.15" y="-10.12" font-family="Helvetica,sans-Serif" font-size="8.00">#i : iequality[]</text>
</g>
<!-- n1 -->
<g id="node2" class="node">
<title>n1</title>
<ellipse fill="none" stroke="black" cx="834.15" cy="-58.06" rx="113.27" ry="12.04"/>
<text text-anchor="middle" x="834.15" y="-56.16" font-family="Helvetica,sans-Serif" font-size="8.00">#vk : c_h[!KU( h(&lt;~B, ~r1, ~r2&gt;) )]</text>
</g>
<!-- n1&#45;&gt;n0 -->
<g id="edge29" class="edge">
<title>n1&#45;&gt;n0</title>
<path fill="none" stroke="black" stroke-dasharray="1,5" d="M852.2,-46.18C860.9,-40.93 871.5,-34.53 881.07,-28.76"/>
<polygon fill="black" stroke="black" points="883.07,-31.64 889.82,-23.48 879.45,-25.65 883.07,-31.64"/>
</g>
<!-- n6 -->
<g id="node3" class="node">
<title>n6</title>
<polygon fill="#d5d897" stroke="black" points="760.65,-783.21 760.65,-906.21 1243.65,-906.21 1243.65,-783.21 760.65,-783.21"/>
<text text-anchor="start" x="768.65" y="-895.81" font-family="Helvetica,sans-Serif" font-size="8.00">Regist( &lt;~IDsc, (~r2⊕h(&lt;~IDsc, h(&lt;~ID, ~PW, Hbio(~B)&gt;), h(&lt;Hbio((~B⊕~r1)), ~s&gt;)&gt;)), </text>
<text text-anchor="start" x="768.65" y="-886.81" font-family="Helvetica,sans-Serif" font-size="8.00">         (h(&lt;~ID, ~PW, Hbio(~B)&gt;)⊕h(&lt;Hbio((~B⊕~r1)), ~s&gt;)), (~r1⊕Hbio(~B))&gt;,</text>
<text text-anchor="start" x="768.65" y="-877.81" font-family="Helvetica,sans-Serif" font-size="8.00">        ~ID, ~PW, ~B, ~r1, ~r2</text>
<text text-anchor="start" x="768.65" y="-868.81" font-family="Helvetica,sans-Serif" font-size="8.00">)</text>
<polyline fill="none" stroke="black" points="760.65,-862.21 1243.65,-862.21 "/>
<text text-anchor="start" x="768.65" y="-851.81" font-family="Helvetica,sans-Serif" font-size="8.00">#vr : A_User_Login[Finish( ~ID, ~PW, ~B ),</text>
<text text-anchor="start" x="768.65" y="-842.81" font-family="Helvetica,sans-Serif" font-size="8.00">                   Init_once( &#39;3&#39; )]</text>
<polyline fill="none" stroke="black" points="760.65,-836.21 1243.65,-836.21 "/>
<text text-anchor="start" x="768.65" y="-816.81" font-family="Helvetica,sans-Serif" font-size="8.00">Out( h(&lt;~B, ~r1, ~r2</text>
<text text-anchor="start" x="768.65" y="-807.81" font-family="Helvetica,sans-Serif" font-size="8.00">       &gt;)</text>
<text text-anchor="start" x="768.65" y="-798.81" font-family="Helvetica,sans-Serif" font-size="8.00">)</text>
<polyline fill="none" stroke="black" points="862.65,-783.21 862.65,-836.21 "/>
<text text-anchor="start" x="870.65" y="-825.81" font-family="Helvetica,sans-Serif" font-size="8.00">User_state3( ~ID, ~PW, ~B, ~r1,</text>
<text text-anchor="start" x="870.65" y="-816.81" font-family="Helvetica,sans-Serif" font-size="8.00">             &lt;~IDsc, (~r2⊕h(&lt;~IDsc, h(&lt;~ID, ~PW, Hbio(~B)&gt;), h(&lt;Hbio((~B⊕~r1)), ~s&gt;)&gt;)), </text>
<text text-anchor="start" x="870.65" y="-807.81" font-family="Helvetica,sans-Serif" font-size="8.00">              (h(&lt;~ID, ~PW, Hbio(~B)&gt;)⊕h(&lt;Hbio((~B⊕~r1)), ~s&gt;)), (~r1⊕Hbio(~B))&gt;,</text>
<text text-anchor="start" x="870.65" y="-798.81" font-family="Helvetica,sans-Serif" font-size="8.00">             h(&lt;~B, ~r1, ~r2&gt;)</text>
<text text-anchor="start" x="870.65" y="-789.81" font-family="Helvetica,sans-Serif" font-size="8.00">)</text>
</g>
<!-- n6&#45;&gt;n0 -->
<g id="edge1" class="edge">
<title>n6:n4&#45;&gt;n0</title>
<path fill="none" stroke="#ee4000" d="M811.15,-782.71C811.15,-741.96 862.99,-777.41 900.15,-760.71 940.99,-742.36 983.15,-748.41 983.15,-703.65 983.15,-703.65 983.15,-703.65 983.15,-103.1 983.15,-75.42 976.09,-67.14 958.15,-46.04 952.31,-39.17 944.68,-33.2 937.11,-28.3"/>
<polygon fill="#ee4000" stroke="#ee4000" points="938.73,-25.2 928.35,-23.05 935.13,-31.2 938.73,-25.2"/>
</g>
<!-- n7 -->
<g id="node4" class="node">
<title>n7</title>
<ellipse fill="none" stroke="black" cx="831.15" cy="-104.1" rx="118.17" ry="12.04"/>
<text text-anchor="middle" x="831.15" y="-102.2" font-family="Helvetica,sans-Serif" font-size="8.00">#vk.1 : c_pair[!KU( &lt;~B, ~r1, ~r2&gt; )]</text>
</g>
<!-- n7&#45;&gt;n1 -->
<g id="edge30" class="edge">
<title>n7&#45;&gt;n1</title>
<path fill="none" stroke="black" stroke-dasharray="1,5" d="M831.91,-91.99C832.15,-88.47 832.42,-84.45 832.7,-80.46"/>
<polygon fill="black" stroke="black" points="836.2,-80.54 833.39,-70.33 829.22,-80.06 836.2,-80.54"/>
</g>
<!-- n8 -->
<g id="node5" class="node">
<title>n8</title>
<ellipse fill="none" stroke="black" cx="325.15" cy="-656.6" rx="45.92" ry="12.04"/>
<text text-anchor="middle" x="325.15" y="-654.7" font-family="Helvetica,sans-Serif" font-size="8.00">#vl.1 : irecv</text>
</g>
<!-- n33 -->
<g id="node13" class="node">
<title>n33</title>
<ellipse fill="none" stroke="black" cx="461.15" cy="-610.56" rx="55.31" ry="12.04"/>
<text text-anchor="middle" x="461.15" y="-608.66" font-family="Helvetica,sans-Serif" font-size="8.00">#vr.4 : d_0_snd</text>
</g>
<!-- n8&#45;&gt;n33 -->
<g id="edge2" class="edge">
<title>n8&#45;&gt;n33</title>
<path fill="none" stroke="#ee4000" d="M352.35,-646.8C372.47,-640.28 400.16,-631.31 422.57,-624.06"/>
<polygon fill="#ee4000" stroke="#ee4000" points="423.69,-627.37 432.13,-620.96 421.53,-620.71 423.69,-627.37"/>
</g>
<!-- n41 -->
<g id="node21" class="node">
<title>n41</title>
<ellipse fill="none" stroke="black" cx="55.15" cy="-610.56" rx="55.31" ry="12.04"/>
<text text-anchor="middle" x="55.15" y="-608.66" font-family="Helvetica,sans-Serif" font-size="8.00">#vr.8 : d_0_snd</text>
</g>
<!-- n8&#45;&gt;n41 -->
<g id="edge3" class="edge">
<title>n8&#45;&gt;n41</title>
<path fill="none" stroke="#ee4000" d="M287.55,-649.57C246.61,-643 179.21,-632.13 121.15,-622.58 116.46,-621.81 111.57,-621 106.68,-620.19"/>
<polygon fill="#ee4000" stroke="#ee4000" points="107.13,-616.72 96.69,-618.53 105.98,-623.62 107.13,-616.72"/>
</g>
<!-- n53 -->
<g id="node29" class="node">
<title>n53</title>
<ellipse fill="none" stroke="black" cx="325.15" cy="-610.56" rx="58.88" ry="12.04"/>
<text text-anchor="middle" x="325.15" y="-608.66" font-family="Helvetica,sans-Serif" font-size="8.00">#vr.12 : d_0_snd</text>
</g>
<!-- n8&#45;&gt;n53 -->
<g id="edge4" class="edge">
<title>n8&#45;&gt;n53</title>
<path fill="none" stroke="#ee4000" d="M325.15,-644.49C325.15,-640.97 325.15,-636.95 325.15,-632.96"/>
<polygon fill="#ee4000" stroke="#ee4000" points="328.65,-632.83 325.15,-622.83 321.65,-632.83 328.65,-632.83"/>
</g>
<!-- n62 -->
<g id="node38" class="node">
<title>n62</title>
<ellipse fill="none" stroke="black" cx="188.15" cy="-610.56" rx="55.72" ry="12.04"/>
<text text-anchor="middle" x="188.15" y="-608.66" font-family="Helvetica,sans-Serif" font-size="8.00">#vr.17 : d_0_fst</text>
</g>
<!-- n8&#45;&gt;n62 -->
<g id="edge5" class="edge">
<title>n8&#45;&gt;n62</title>
<path fill="none" stroke="#ee4000" d="M297.76,-646.8C277.49,-640.28 249.6,-631.31 227.03,-624.06"/>
<polygon fill="#ee4000" stroke="#ee4000" points="227.99,-620.69 217.4,-620.96 225.84,-627.35 227.99,-620.69"/>
</g>
<!-- n17 -->
<g id="node6" class="node">
<title>n17</title>
<polygon fill="#c5d998" stroke="black" points="634.65,-929.21 634.65,-1061.21 1097.65,-1061.21 1097.65,-929.21 634.65,-929.21"/>
<text text-anchor="middle" x="713.15" y="-1050.81" font-family="Helvetica,sans-Serif" font-size="8.00">!Own_User( ~ID, ~PW, ~B )</text>
<polyline fill="none" stroke="black" points="791.65,-1044.21 791.65,-1061.21 "/>
<text text-anchor="middle" x="864.15" y="-1050.81" font-family="Helvetica,sans-Serif" font-size="8.00">Own_server( ~s, ~IDsc )</text>
<polyline fill="none" stroke="black" points="936.65,-1044.21 936.65,-1061.21 "/>
<text text-anchor="middle" x="976.65" y="-1050.81" font-family="Helvetica,sans-Serif" font-size="8.00">Fr( ~r1 )</text>
<polyline fill="none" stroke="black" points="1016.65,-1044.21 1016.65,-1061.21 "/>
<text text-anchor="middle" x="1057.15" y="-1050.81" font-family="Helvetica,sans-Serif" font-size="8.00">Fr( ~r2 )</text>
<polyline fill="none" stroke="black" points="634.65,-1044.21 1097.65,-1044.21 "/>
<text text-anchor="middle" x="866.15" y="-1033.81" font-family="Helvetica,sans-Serif" font-size="8.00">#vr.1 : Regist_smartcard[Init_once( &#39;1&#39; )]</text>
<polyline fill="none" stroke="black" points="634.65,-1027.21 1097.65,-1027.21 "/>
<text text-anchor="start" x="642.65" y="-1012.31" font-family="Helvetica,sans-Serif" font-size="8.00">Out( &lt;~IDsc, </text>
<text text-anchor="start" x="642.65" y="-1003.31" font-family="Helvetica,sans-Serif" font-size="8.00">      (~r2⊕</text>
<text text-anchor="start" x="642.65" y="-994.31" font-family="Helvetica,sans-Serif" font-size="8.00">       h(&lt;~IDsc, h(&lt;~ID, ~PW, Hbio(~B)&gt;), </text>
<text text-anchor="start" x="642.65" y="-985.31" font-family="Helvetica,sans-Serif" font-size="8.00">          h(&lt;Hbio((~B⊕~r1)), ~s&gt;)&gt;)</text>
<text text-anchor="start" x="642.65" y="-976.31" font-family="Helvetica,sans-Serif" font-size="8.00">      ), </text>
<text text-anchor="start" x="642.65" y="-967.31" font-family="Helvetica,sans-Serif" font-size="8.00">      (h(&lt;~ID, ~PW, Hbio(~B)&gt;)⊕</text>
<text text-anchor="start" x="642.65" y="-958.31" font-family="Helvetica,sans-Serif" font-size="8.00">       h(&lt;Hbio((~B⊕~r1)), ~s&gt;)), </text>
<text text-anchor="start" x="642.65" y="-949.31" font-family="Helvetica,sans-Serif" font-size="8.00">      (~r1⊕Hbio(~B))&gt;</text>
<text text-anchor="start" x="642.65" y="-940.31" font-family="Helvetica,sans-Serif" font-size="8.00">)</text>
<polyline fill="none" stroke="black" points="819.65,-929.21 819.65,-1027.21 "/>
<text text-anchor="middle" x="862.65" y="-976.31" font-family="Helvetica,sans-Serif" font-size="8.00">Out( &lt;~ID, ~B&gt; )</text>
<polyline fill="none" stroke="black" points="905.65,-929.21 905.65,-1027.21 "/>
<text text-anchor="start" x="913.65" y="-1016.81" font-family="Helvetica,sans-Serif" font-size="8.00">Regist( &lt;~IDsc, </text>
<text text-anchor="start" x="913.65" y="-1007.81" font-family="Helvetica,sans-Serif" font-size="8.00">         (~r2⊕</text>
<text text-anchor="start" x="913.65" y="-998.81" font-family="Helvetica,sans-Serif" font-size="8.00">          h(&lt;~IDsc, h(&lt;~ID, ~PW, Hbio(~B)&gt;), </text>
<text text-anchor="start" x="913.65" y="-989.81" font-family="Helvetica,sans-Serif" font-size="8.00">             h(&lt;Hbio((~B⊕~r1)), ~s&gt;)&gt;)</text>
<text text-anchor="start" x="913.65" y="-980.81" font-family="Helvetica,sans-Serif" font-size="8.00">         ), </text>
<text text-anchor="start" x="913.65" y="-971.81" font-family="Helvetica,sans-Serif" font-size="8.00">         (h(&lt;~ID, ~PW, Hbio(~B)&gt;)⊕</text>
<text text-anchor="start" x="913.65" y="-962.81" font-family="Helvetica,sans-Serif" font-size="8.00">          h(&lt;Hbio((~B⊕~r1)), ~s&gt;)), </text>
<text text-anchor="start" x="913.65" y="-953.81" font-family="Helvetica,sans-Serif" font-size="8.00">         (~r1⊕Hbio(~B))&gt;,</text>
<text text-anchor="start" x="913.65" y="-944.81" font-family="Helvetica,sans-Serif" font-size="8.00">        ~ID, ~PW, ~B, ~r1, ~r2</text>
<text text-anchor="start" x="913.65" y="-935.81" font-family="Helvetica,sans-Serif" font-size="8.00">)</text>
</g>
<!-- n17&#45;&gt;n6 -->
<g id="edge8" class="edge">
<title>n17:n16&#45;&gt;n6:n2</title>
<path fill="none" stroke="black" stroke-width="2" d="M1002.15,-928.71C1002.15,-874.71 797.46,-945.74 760.15,-906.71 756.77,-903.17 754.08,-897.67 753.45,-893.05"/>
<polygon fill="black" stroke="black" stroke-width="2" points="756.4,-894.94 759.15,-884.71 750.62,-890.99 756.4,-894.94"/>
</g>
<!-- n17&#45;&gt;n8 -->
<g id="edge6" class="edge">
<title>n17:n14&#45;&gt;n8</title>
<path fill="none" stroke="#4d4d4d" d="M633.15,-978.21C621.93,-978.21 628.93,-938.33 623.15,-928.71 562.71,-828 504.27,-841.65 419.15,-760.71 389.87,-732.86 358.83,-697.51 340.76,-676.27"/>
<polygon fill="#4d4d4d" stroke="#4d4d4d" points="343.41,-673.99 334.28,-668.61 338.06,-678.51 343.41,-673.99"/>
</g>
<!-- n26 -->
<g id="node10" class="node">
<title>n26</title>
<ellipse fill="none" stroke="black" cx="693.15" cy="-844.71" rx="45.92" ry="12.04"/>
<text text-anchor="middle" x="693.15" y="-842.81" font-family="Helvetica,sans-Serif" font-size="8.00">#vl.3 : irecv</text>
</g>
<!-- n17&#45;&gt;n26 -->
<g id="edge7" class="edge">
<title>n17:n15&#45;&gt;n26</title>
<path fill="none" stroke="#4d4d4d" d="M862.15,-928.71C862.15,-903.13 771.48,-919.2 749.15,-906.71 731.25,-896.69 715.9,-878.88 705.82,-865.08"/>
<polygon fill="#4d4d4d" stroke="#4d4d4d" points="708.58,-862.91 699.99,-856.71 702.84,-866.92 708.58,-862.91"/>
</g>
<!-- n18 -->
<g id="node7" class="node">
<title>n18</title>
<ellipse fill="none" stroke="black" cx="793.15" cy="-150.15" rx="106.13" ry="12.04"/>
<text text-anchor="middle" x="793.15" y="-148.25" font-family="Helvetica,sans-Serif" font-size="8.00">#vk.2 : c_pair[!KU( &lt;~r1, ~r2&gt; )]</text>
</g>
<!-- n18&#45;&gt;n7 -->
<g id="edge31" class="edge">
<title>n18&#45;&gt;n7</title>
<path fill="none" stroke="black" stroke-dasharray="1,5" d="M802.74,-138.03C806.41,-133.79 810.69,-128.82 814.81,-124.05"/>
<polygon fill="black" stroke="black" points="817.55,-126.23 821.44,-116.37 812.25,-121.65 817.55,-126.23"/>
</g>
<!-- n24 -->
<g id="node8" class="node">
<title>n24</title>
<polygon fill="#beda99" stroke="black" points="514.15,-1084.21 514.15,-1135.21 662.15,-1135.21 662.15,-1084.21 514.15,-1084.21"/>
<text text-anchor="middle" x="538.65" y="-1124.81" font-family="Helvetica,sans-Serif" font-size="8.00">Fr( ~ID )</text>
<polyline fill="none" stroke="black" points="563.15,-1118.21 563.15,-1135.21 "/>
<text text-anchor="middle" x="589.65" y="-1124.81" font-family="Helvetica,sans-Serif" font-size="8.00">Fr( ~PW )</text>
<polyline fill="none" stroke="black" points="616.15,-1118.21 616.15,-1135.21 "/>
<text text-anchor="middle" x="639.15" y="-1124.81" font-family="Helvetica,sans-Serif" font-size="8.00">Fr( ~B )</text>
<polyline fill="none" stroke="black" points="514.15,-1118.21 662.15,-1118.21 "/>
<text text-anchor="middle" x="588.15" y="-1107.81" font-family="Helvetica,sans-Serif" font-size="8.00">#vr.2 : User_init[Init_pw_once( )]</text>
<polyline fill="none" stroke="black" points="514.15,-1101.21 662.15,-1101.21 "/>
<text text-anchor="middle" x="588.15" y="-1090.81" font-family="Helvetica,sans-Serif" font-size="8.00">!Own_User( ~ID, ~PW, ~B )</text>
</g>
<!-- n24&#45;&gt;n17 -->
<g id="edge9" class="edge">
<title>n24:n23&#45;&gt;n17:n9</title>
<path fill="none" stroke="#7f7f7f" stroke-width="2" d="M663.15,-1092.71C667.18,-1092.71 664.11,-1087.22 662.15,-1083.71 655.72,-1072.15 645.89,-1074.19 637.73,-1062.14"/>
<polygon fill="#7f7f7f" stroke="#7f7f7f" stroke-width="2" points="640.83,-1060.51 633.15,-1053.21 634.6,-1063.7 640.83,-1060.51"/>
</g>
<!-- n51 -->
<g id="node27" class="node">
<title>n51</title>
<polygon fill="#a6dd9a" stroke="black" points="430.15,-969.71 430.15,-1020.71 612.15,-1020.71 612.15,-969.71 430.15,-969.71"/>
<text text-anchor="middle" x="493.15" y="-1010.31" font-family="Helvetica,sans-Serif" font-size="8.00">!Own_User( ~ID, ~PW, ~B )</text>
<polyline fill="none" stroke="black" points="556.15,-1003.71 556.15,-1020.71 "/>
<text text-anchor="middle" x="584.15" y="-1010.31" font-family="Helvetica,sans-Serif" font-size="8.00">Fr( ~rpw )</text>
<polyline fill="none" stroke="black" points="430.15,-1003.71 612.15,-1003.71 "/>
<text text-anchor="middle" x="521.15" y="-993.31" font-family="Helvetica,sans-Serif" font-size="8.00">#vr.11 : Password_guess[Guess_once( )]</text>
<polyline fill="none" stroke="black" points="430.15,-986.71 612.15,-986.71 "/>
<text text-anchor="middle" x="521.15" y="-976.31" font-family="Helvetica,sans-Serif" font-size="8.00">Out( ~PW )</text>
</g>
<!-- n24&#45;&gt;n51 -->
<g id="edge10" class="edge">
<title>n24:n23&#45;&gt;n51:n47</title>
<path fill="none" stroke="#7f7f7f" stroke-width="2" d="M513.15,-1092.71C483.89,-1092.71 491.07,-1062.09 492.83,-1032.25"/>
<polygon fill="#7f7f7f" stroke="#7f7f7f" stroke-width="2" points="496.33,-1032.32 493.15,-1022.21 489.33,-1032.09 496.33,-1032.32"/>
</g>
<!-- n25 -->
<g id="node9" class="node">
<title>n25</title>
<ellipse fill="none" stroke="black" cx="793.15" cy="-334.31" rx="85.62" ry="12.04"/>
<text text-anchor="middle" x="793.15" y="-332.41" font-family="Helvetica,sans-Serif" font-size="8.00">#vk.3 : coerce[!KU( ~r1 )]</text>
</g>
<!-- n25&#45;&gt;n18 -->
<g id="edge32" class="edge">
<title>n25&#45;&gt;n18</title>
<path fill="none" stroke="black" stroke-dasharray="1,5" d="M793.15,-322.19C793.15,-292.6 793.15,-211.53 793.15,-172.59"/>
<polygon fill="black" stroke="black" points="796.65,-172.59 793.15,-162.59 789.65,-172.59 796.65,-172.59"/>
</g>
<!-- n61 -->
<g id="node37" class="node">
<title>n61</title>
<ellipse fill="none" stroke="black" cx="830.15" cy="-748.69" rx="58.88" ry="12.04"/>
<text text-anchor="middle" x="830.15" y="-746.79" font-family="Helvetica,sans-Serif" font-size="8.00">#vr.16 : d_0_snd</text>
</g>
<!-- n26&#45;&gt;n61 -->
<g id="edge11" class="edge">
<title>n26&#45;&gt;n61</title>
<path fill="none" stroke="#ee4000" d="M701.07,-832.4C710.98,-818.98 729.09,-796.66 749.15,-782.71 761.19,-774.34 775.68,-767.58 789.04,-762.42"/>
<polygon fill="#ee4000" stroke="#ee4000" points="790.35,-765.67 798.53,-758.93 787.94,-759.09 790.35,-765.67"/>
</g>
<!-- n63 -->
<g id="node39" class="node">
<title>n63</title>
<ellipse fill="none" stroke="black" cx="693.15" cy="-748.69" rx="55.72" ry="12.04"/>
<text text-anchor="middle" x="693.15" y="-746.79" font-family="Helvetica,sans-Serif" font-size="8.00">#vr.18 : d_0_fst</text>
</g>
<!-- n26&#45;&gt;n63 -->
<g id="edge12" class="edge">
<title>n26&#45;&gt;n63</title>
<path fill="none" stroke="#ee4000" d="M693.15,-832.55C693.15,-817.43 693.15,-790.11 693.15,-770.98"/>
<polygon fill="#ee4000" stroke="#ee4000" points="696.65,-770.83 693.15,-760.83 689.65,-770.83 696.65,-770.83"/>
</g>
<!-- n31 -->
<g id="node11" class="node">
<title>n31</title>
<polygon fill="#aedc9a" stroke="black" points="778.15,-1084.21 778.15,-1135.21 950.15,-1135.21 950.15,-1084.21 778.15,-1084.21"/>
<text text-anchor="middle" x="817.65" y="-1124.81" font-family="Helvetica,sans-Serif" font-size="8.00">Fr( ~s )</text>
<polyline fill="none" stroke="black" points="857.15,-1118.21 857.15,-1135.21 "/>
<text text-anchor="middle" x="903.65" y="-1124.81" font-family="Helvetica,sans-Serif" font-size="8.00">Fr( ~IDsc )</text>
<polyline fill="none" stroke="black" points="778.15,-1118.21 950.15,-1118.21 "/>
<text text-anchor="middle" x="864.15" y="-1107.81" font-family="Helvetica,sans-Serif" font-size="8.00">#vr.3 : Server_init[Init_once( &#39;Server&#39; )]</text>
<polyline fill="none" stroke="black" points="778.15,-1101.21 950.15,-1101.21 "/>
<text text-anchor="middle" x="864.15" y="-1090.81" font-family="Helvetica,sans-Serif" font-size="8.00">Own_server( ~s, ~IDsc )</text>
</g>
<!-- n31&#45;&gt;n17 -->
<g id="edge13" class="edge">
<title>n31:n30&#45;&gt;n17:n10</title>
<path fill="none" stroke="black" stroke-width="2" d="M864.15,-1083.71C864.15,-1078.36 864.15,-1075.21 864.15,-1071.85"/>
<polygon fill="black" stroke="black" stroke-width="2" points="867.65,-1071.71 864.15,-1061.71 860.65,-1071.71 867.65,-1071.71"/>
</g>
<!-- n32 -->
<g id="node12" class="node">
<title>n32</title>
<ellipse fill="none" stroke="black" cx="538.15" cy="-196.19" rx="85.62" ry="12.04"/>
<text text-anchor="middle" x="538.15" y="-194.29" font-family="Helvetica,sans-Serif" font-size="8.00">#vk.4 : coerce[!KU( ~r2 )]</text>
</g>
<!-- n32&#45;&gt;n18 -->
<g id="edge33" class="edge">
<title>n32&#45;&gt;n18</title>
<path fill="none" stroke="black" stroke-dasharray="1,5" d="M588.84,-186.43C629.13,-179.47 685.73,-169.7 729.15,-162.2"/>
<polygon fill="black" stroke="black" points="729.78,-165.64 739.04,-160.49 728.59,-158.74 729.78,-165.64"/>
</g>
<!-- n35 -->
<g id="node15" class="node">
<title>n35</title>
<ellipse fill="none" stroke="black" cx="461.15" cy="-564.52" rx="55.31" ry="12.04"/>
<text text-anchor="middle" x="461.15" y="-562.62" font-family="Helvetica,sans-Serif" font-size="8.00">#vr.5 : d_0_snd</text>
</g>
<!-- n33&#45;&gt;n35 -->
<g id="edge14" class="edge">
<title>n33&#45;&gt;n35</title>
<path fill="none" stroke="#ee4000" d="M461.15,-598.45C461.15,-594.93 461.15,-590.91 461.15,-586.92"/>
<polygon fill="#ee4000" stroke="#ee4000" points="464.65,-586.78 461.15,-576.78 457.65,-586.78 464.65,-586.78"/>
</g>
<!-- n34 -->
<g id="node14" class="node">
<title>n34</title>
<ellipse fill="none" stroke="black" cx="803.15" cy="-656.6" rx="100.32" ry="12.04"/>
<text text-anchor="middle" x="803.15" y="-654.7" font-family="Helvetica,sans-Serif" font-size="8.00">#vk.5 : c_Hbio[!KU( Hbio(~B) )]</text>
</g>
<!-- n39 -->
<g id="node19" class="node">
<title>n39</title>
<ellipse fill="none" stroke="black" cx="793.15" cy="-472.44" rx="47.25" ry="12.04"/>
<text text-anchor="middle" x="793.15" y="-470.54" font-family="Helvetica,sans-Serif" font-size="8.00">#vr.7 : d_xor</text>
</g>
<!-- n34&#45;&gt;n39 -->
<g id="edge34" class="edge">
<title>n34&#45;&gt;n39</title>
<path fill="none" stroke="black" stroke-dasharray="1,5" d="M829.16,-644.88C838.46,-639.62 847.93,-632.29 853.15,-622.58 864.3,-601.86 890.96,-573.25 851.15,-506.46 846.23,-498.2 838.41,-491.82 830.08,-486.98"/>
<polygon fill="black" stroke="black" points="831.45,-483.75 820.95,-482.31 828.26,-489.98 831.45,-483.75"/>
</g>
<!-- n46 -->
<g id="node26" class="node">
<title>n46</title>
<ellipse fill="none" stroke="black" cx="713.15" cy="-610.56" rx="128.89" ry="12.04"/>
<text text-anchor="middle" x="713.15" y="-608.66" font-family="Helvetica,sans-Serif" font-size="8.00">#vk.11 : c_pair[!KU( &lt;~PW, Hbio(~B)&gt; )]</text>
</g>
<!-- n34&#45;&gt;n46 -->
<g id="edge35" class="edge">
<title>n34&#45;&gt;n46</title>
<path fill="none" stroke="black" stroke-dasharray="1,5" d="M780.91,-644.72C769.98,-639.37 756.63,-632.84 744.67,-626.99"/>
<polygon fill="black" stroke="black" points="745.98,-623.73 735.46,-622.48 742.9,-630.02 745.98,-623.73"/>
</g>
<!-- n37 -->
<g id="node17" class="node">
<title>n37</title>
<ellipse fill="none" stroke="black" cx="785.15" cy="-518.48" rx="55.31" ry="12.04"/>
<text text-anchor="middle" x="785.15" y="-516.58" font-family="Helvetica,sans-Serif" font-size="8.00">#vr.6 : d_0_snd</text>
</g>
<!-- n35&#45;&gt;n37 -->
<g id="edge15" class="edge">
<title>n35&#45;&gt;n37</title>
<path fill="none" stroke="#ee4000" d="M501.95,-556.39C510.27,-555.02 518.99,-553.66 527.15,-552.5 610.45,-540.68 631.81,-541.93 715.15,-530.5 721.01,-529.7 727.13,-528.81 733.22,-527.89"/>
<polygon fill="#ee4000" stroke="#ee4000" points="734.01,-531.31 743.37,-526.34 732.95,-524.39 734.01,-531.31"/>
</g>
<!-- n36 -->
<g id="node16" class="node">
<title>n36</title>
<ellipse fill="none" stroke="black" cx="403.15" cy="-288.27" rx="253.7" ry="12.04"/>
<text text-anchor="middle" x="403.15" y="-286.37" font-family="Helvetica,sans-Serif" font-size="8.00">#vk.6 : c_h[!KU( h(&lt;~IDsc, h(&lt;~ID, ~PW, Hbio(~B)&gt;), h(&lt;Hbio((~B⊕~r1)), ~s&gt;)&gt;) )]</text>
</g>
<!-- n45 -->
<g id="node25" class="node">
<title>n45</title>
<ellipse fill="none" stroke="black" cx="403.15" cy="-242.23" rx="50.82" ry="12.04"/>
<text text-anchor="middle" x="403.15" y="-240.33" font-family="Helvetica,sans-Serif" font-size="8.00">#vr.10 : d_xor</text>
</g>
<!-- n36&#45;&gt;n45 -->
<g id="edge36" class="edge">
<title>n36&#45;&gt;n45</title>
<path fill="none" stroke="black" stroke-dasharray="1,5" d="M403.15,-276.16C403.15,-272.64 403.15,-268.62 403.15,-264.63"/>
<polygon fill="black" stroke="black" points="406.65,-264.49 403.15,-254.49 399.65,-264.49 406.65,-264.49"/>
</g>
<!-- n37&#45;&gt;n39 -->
<g id="edge16" class="edge">
<title>n37&#45;&gt;n39</title>
<path fill="none" stroke="#ee4000" d="M787.17,-506.37C787.81,-502.85 788.54,-498.83 789.27,-494.84"/>
<polygon fill="#ee4000" stroke="#ee4000" points="792.76,-495.16 791.11,-484.7 785.88,-493.91 792.76,-495.16"/>
</g>
<!-- n38 -->
<g id="node18" class="node">
<title>n38</title>
<ellipse fill="none" stroke="black" cx="403.15" cy="-334.31" rx="253.7" ry="12.04"/>
<text text-anchor="middle" x="403.15" y="-332.41" font-family="Helvetica,sans-Serif" font-size="8.00">#vk.7 : c_pair[!KU( &lt;~IDsc, h(&lt;~ID, ~PW, Hbio(~B)&gt;), h(&lt;Hbio((~B⊕~r1)), ~s&gt;)&gt; )]</text>
</g>
<!-- n38&#45;&gt;n36 -->
<g id="edge37" class="edge">
<title>n38&#45;&gt;n36</title>
<path fill="none" stroke="black" stroke-dasharray="1,5" d="M403.15,-322.2C403.15,-318.68 403.15,-314.66 403.15,-310.67"/>
<polygon fill="black" stroke="black" points="406.65,-310.53 403.15,-300.53 399.65,-310.53 406.65,-310.53"/>
</g>
<!-- n39&#45;&gt;n25 -->
<g id="edge17" class="edge">
<title>n39&#45;&gt;n25</title>
<path fill="none" stroke="#ee4000" d="M793.15,-460.3C793.15,-437.66 793.15,-385.96 793.15,-356.64"/>
<polygon fill="#ee4000" stroke="#ee4000" points="796.65,-356.61 793.15,-346.61 789.65,-356.61 796.65,-356.61"/>
</g>
<!-- n40 -->
<g id="node20" class="node">
<title>n40</title>
<ellipse fill="none" stroke="black" cx="455.15" cy="-380.35" rx="233.19" ry="12.04"/>
<text text-anchor="middle" x="455.15" y="-378.45" font-family="Helvetica,sans-Serif" font-size="8.00">#vk.8 : c_pair[!KU( &lt;h(&lt;~ID, ~PW, Hbio(~B)&gt;), h(&lt;Hbio((~B⊕~r1)), ~s&gt;)&gt; )]</text>
</g>
<!-- n40&#45;&gt;n38 -->
<g id="edge38" class="edge">
<title>n40&#45;&gt;n38</title>
<path fill="none" stroke="black" stroke-dasharray="1,5" d="M442.03,-368.24C436.65,-363.69 430.29,-358.3 424.29,-353.21"/>
<polygon fill="black" stroke="black" points="426.35,-350.37 416.45,-346.58 421.82,-355.71 426.35,-350.37"/>
</g>
<!-- n43 -->
<g id="node23" class="node">
<title>n43</title>
<ellipse fill="none" stroke="black" cx="78.15" cy="-380.35" rx="52.15" ry="12.04"/>
<text text-anchor="middle" x="78.15" y="-378.45" font-family="Helvetica,sans-Serif" font-size="8.00">#vr.9 : d_0_fst</text>
</g>
<!-- n41&#45;&gt;n43 -->
<g id="edge18" class="edge">
<title>n41&#45;&gt;n43</title>
<path fill="none" stroke="#ee4000" d="M55.56,-598.47C56.14,-581.47 57.15,-547.95 57.15,-519.48 57.15,-519.48 57.15,-519.48 57.15,-471.44 57.15,-447.14 64.49,-420.1 70.49,-402.04"/>
<polygon fill="#ee4000" stroke="#ee4000" points="73.82,-403.13 73.8,-392.53 67.21,-400.83 73.82,-403.13"/>
</g>
<!-- n42 -->
<g id="node22" class="node">
<title>n42</title>
<ellipse fill="none" stroke="black" cx="565.15" cy="-518.48" rx="139.1" ry="12.04"/>
<text text-anchor="middle" x="565.15" y="-516.58" font-family="Helvetica,sans-Serif" font-size="8.00">#vk.9 : c_h[!KU( h(&lt;~ID, ~PW, Hbio(~B)&gt;) )]</text>
</g>
<!-- n42&#45;&gt;n40 -->
<g id="edge39" class="edge">
<title>n42&#45;&gt;n40</title>
<path fill="none" stroke="black" stroke-dasharray="1,5" d="M565.88,-506.36C566.62,-485.68 565.21,-440.99 542.15,-414.37 535.49,-406.68 526.84,-400.77 517.58,-396.24"/>
<polygon fill="black" stroke="black" points="518.74,-392.93 508.17,-392.15 515.94,-399.35 518.74,-392.93"/>
</g>
<!-- n59 -->
<g id="node35" class="node">
<title>n59</title>
<ellipse fill="none" stroke="black" cx="378.15" cy="-472.44" rx="50.82" ry="12.04"/>
<text text-anchor="middle" x="378.15" y="-470.54" font-family="Helvetica,sans-Serif" font-size="8.00">#vr.15 : d_xor</text>
</g>
<!-- n42&#45;&gt;n59 -->
<g id="edge40" class="edge">
<title>n42&#45;&gt;n59</title>
<path fill="none" stroke="black" stroke-dasharray="1,5" d="M520.84,-507.04C491.08,-500.03 452.03,-490.84 422.31,-483.84"/>
<polygon fill="black" stroke="black" points="422.75,-480.34 412.22,-481.46 421.15,-487.16 422.75,-480.34"/>
</g>
<!-- n43&#45;&gt;n45 -->
<g id="edge19" class="edge">
<title>n43&#45;&gt;n45</title>
<path fill="none" stroke="#ee4000" d="M81.11,-368.04C87.46,-346.19 104.63,-298.4 138.15,-276.25 170.72,-254.74 275.06,-247.24 342.69,-244.62"/>
<polygon fill="#ee4000" stroke="#ee4000" points="342.93,-248.12 352.8,-244.26 342.68,-241.12 342.93,-248.12"/>
</g>
<!-- n44 -->
<g id="node24" class="node">
<title>n44</title>
<ellipse fill="none" stroke="black" cx="680.15" cy="-564.52" rx="142.26" ry="12.04"/>
<text text-anchor="middle" x="680.15" y="-562.62" font-family="Helvetica,sans-Serif" font-size="8.00">#vk.10 : c_pair[!KU( &lt;~ID, ~PW, Hbio(~B)&gt; )]</text>
</g>
<!-- n44&#45;&gt;n42 -->
<g id="edge41" class="edge">
<title>n44&#45;&gt;n42</title>
<path fill="none" stroke="black" stroke-dasharray="1,5" d="M651.73,-552.63C637.08,-547.02 619.01,-540.1 603.17,-534.04"/>
<polygon fill="black" stroke="black" points="604.24,-530.7 593.65,-530.39 601.74,-537.24 604.24,-530.7"/>
</g>
<!-- n45&#45;&gt;n32 -->
<g id="edge20" class="edge">
<title>n45&#45;&gt;n32</title>
<path fill="none" stroke="#ee4000" d="M431.13,-232.1C450.19,-225.88 475.76,-217.54 497.12,-210.57"/>
<polygon fill="#ee4000" stroke="#ee4000" points="498.49,-213.81 506.91,-207.38 496.32,-207.15 498.49,-213.81"/>
</g>
<!-- n46&#45;&gt;n44 -->
<g id="edge42" class="edge">
<title>n46&#45;&gt;n44</title>
<path fill="none" stroke="black" stroke-dasharray="1,5" d="M704.83,-598.45C701.72,-594.31 698.11,-589.48 694.61,-584.81"/>
<polygon fill="black" stroke="black" points="697.39,-582.69 688.59,-576.78 691.79,-586.89 697.39,-582.69"/>
</g>
<!-- n52 -->
<g id="node28" class="node">
<title>n52</title>
<ellipse fill="none" stroke="black" cx="523.15" cy="-748.69" rx="92.76" ry="12.04"/>
<text text-anchor="middle" x="523.15" y="-746.79" font-family="Helvetica,sans-Serif" font-size="8.00">#vk.12 : coerce[!KU( ~PW )]</text>
</g>
<!-- n51&#45;&gt;n52 -->
<g id="edge21" class="edge">
<title>n51:n50&#45;&gt;n52</title>
<path fill="none" stroke="#ee4000" d="M429.15,-978.21C338.75,-978.21 460.87,-823.37 506.89,-768.6"/>
<polygon fill="#ee4000" stroke="#ee4000" points="509.79,-770.6 513.58,-760.71 504.45,-766.07 509.79,-770.6"/>
</g>
<!-- n52&#45;&gt;n46 -->
<g id="edge43" class="edge">
<title>n52&#45;&gt;n46</title>
<path fill="none" stroke="black" stroke-dasharray="1,5" d="M586.48,-739.89C606.94,-735.07 628.8,-727.27 646.15,-714.67 648.13,-713.23 681.58,-661.06 700.45,-631.5"/>
<polygon fill="black" stroke="black" points="703.58,-633.1 706.01,-622.79 697.68,-629.33 703.58,-633.1"/>
</g>
<!-- n55 -->
<g id="node31" class="node">
<title>n55</title>
<ellipse fill="none" stroke="black" cx="325.15" cy="-564.52" rx="58.88" ry="12.04"/>
<text text-anchor="middle" x="325.15" y="-562.62" font-family="Helvetica,sans-Serif" font-size="8.00">#vr.13 : d_0_snd</text>
</g>
<!-- n53&#45;&gt;n55 -->
<g id="edge22" class="edge">
<title>n53&#45;&gt;n55</title>
<path fill="none" stroke="#ee4000" d="M325.15,-598.45C325.15,-594.93 325.15,-590.91 325.15,-586.92"/>
<polygon fill="#ee4000" stroke="#ee4000" points="328.65,-586.78 325.15,-576.78 321.65,-586.78 328.65,-586.78"/>
</g>
<!-- n54 -->
<g id="node30" class="node">
<title>n54</title>
<ellipse fill="none" stroke="black" cx="378.15" cy="-426.4" rx="152.97" ry="12.04"/>
<text text-anchor="middle" x="378.15" y="-424.5" font-family="Helvetica,sans-Serif" font-size="8.00">#vk.13 : coerce[!KU( h(&lt;Hbio((~B⊕~r1)), ~s&gt;) )]</text>
</g>
<!-- n54&#45;&gt;n40 -->
<g id="edge44" class="edge">
<title>n54&#45;&gt;n40</title>
<path fill="none" stroke="black" stroke-dasharray="1,5" d="M397.58,-414.28C406.43,-409.22 417.07,-403.14 426.79,-397.58"/>
<polygon fill="black" stroke="black" points="428.79,-400.47 435.73,-392.46 425.31,-394.39 428.79,-400.47"/>
</g>
<!-- n57 -->
<g id="node33" class="node">
<title>n57</title>
<ellipse fill="none" stroke="black" cx="336.15" cy="-518.48" rx="55.72" ry="12.04"/>
<text text-anchor="middle" x="336.15" y="-516.58" font-family="Helvetica,sans-Serif" font-size="8.00">#vr.14 : d_0_fst</text>
</g>
<!-- n55&#45;&gt;n57 -->
<g id="edge23" class="edge">
<title>n55&#45;&gt;n57</title>
<path fill="none" stroke="#ee4000" d="M327.93,-552.41C328.84,-548.78 329.87,-544.63 330.9,-540.53"/>
<polygon fill="#ee4000" stroke="#ee4000" points="334.31,-541.29 333.34,-530.74 327.52,-539.6 334.31,-541.29"/>
</g>
<!-- n56 -->
<g id="node32" class="node">
<title>n56</title>
<ellipse fill="none" stroke="black" cx="830.15" cy="-702.65" rx="86.95" ry="12.04"/>
<text text-anchor="middle" x="830.15" y="-700.75" font-family="Helvetica,sans-Serif" font-size="8.00">#vk.14 : coerce[!KU( ~B )]</text>
</g>
<!-- n56&#45;&gt;n7 -->
<g id="edge45" class="edge">
<title>n56&#45;&gt;n7</title>
<path fill="none" stroke="black" stroke-dasharray="1,5" d="M873.32,-692.09C887.78,-687.11 903.03,-679.66 914.15,-668.62 933.57,-649.37 937.15,-638.91 937.15,-611.56 937.15,-611.56 937.15,-611.56 937.15,-195.19 937.15,-167.13 930.44,-157.5 910.15,-138.12 901.84,-130.18 891.34,-124.03 880.73,-119.3"/>
<polygon fill="black" stroke="black" points="882.01,-116.05 871.43,-115.51 879.37,-122.53 882.01,-116.05"/>
</g>
<!-- n56&#45;&gt;n34 -->
<g id="edge46" class="edge">
<title>n56&#45;&gt;n34</title>
<path fill="none" stroke="black" stroke-dasharray="1,5" d="M823.34,-690.53C820.93,-686.6 818.14,-682.04 815.41,-677.6"/>
<polygon fill="black" stroke="black" points="818.27,-675.56 810.06,-668.87 812.3,-679.22 818.27,-675.56"/>
</g>
<!-- n57&#45;&gt;n59 -->
<g id="edge24" class="edge">
<title>n57&#45;&gt;n59</title>
<path fill="none" stroke="#ee4000" d="M346.75,-506.37C350.96,-501.95 355.92,-496.75 360.63,-491.81"/>
<polygon fill="#ee4000" stroke="#ee4000" points="363.34,-494.05 367.7,-484.39 358.27,-489.22 363.34,-494.05"/>
</g>
<!-- n58 -->
<g id="node34" class="node">
<title>n58</title>
<ellipse fill="none" stroke="black" cx="188.15" cy="-472.44" rx="95.42" ry="12.04"/>
<text text-anchor="middle" x="188.15" y="-470.54" font-family="Helvetica,sans-Serif" font-size="8.00">#vk.15 : coerce[!KU( ~IDsc )]</text>
</g>
<!-- n58&#45;&gt;n38 -->
<g id="edge47" class="edge">
<title>n58&#45;&gt;n38</title>
<path fill="none" stroke="black" stroke-dasharray="1,5" d="M186.99,-460.21C185.46,-438.95 185.52,-392.74 211.15,-368.33 221.54,-358.45 246.09,-351.49 274.29,-346.6"/>
<polygon fill="black" stroke="black" points="275.09,-350.02 284.4,-344.96 273.97,-343.11 275.09,-350.02"/>
</g>
<!-- n59&#45;&gt;n54 -->
<g id="edge25" class="edge">
<title>n59&#45;&gt;n54</title>
<path fill="none" stroke="#ee4000" d="M378.15,-460.32C378.15,-456.8 378.15,-452.79 378.15,-448.8"/>
<polygon fill="#ee4000" stroke="#ee4000" points="381.65,-448.66 378.15,-438.66 374.65,-448.66 381.65,-448.66"/>
</g>
<!-- n60 -->
<g id="node36" class="node">
<title>n60</title>
<ellipse fill="none" stroke="black" cx="546.15" cy="-702.65" rx="89.19" ry="12.04"/>
<text text-anchor="middle" x="546.15" y="-700.75" font-family="Helvetica,sans-Serif" font-size="8.00">#vk.16 : coerce[!KU( ~ID )]</text>
</g>
<!-- n60&#45;&gt;n44 -->
<g id="edge48" class="edge">
<title>n60&#45;&gt;n44</title>
<path fill="none" stroke="black" stroke-dasharray="1,5" d="M545.77,-690.35C545.68,-669.37 548.58,-624.2 573.15,-598.54 581.45,-589.88 591.97,-583.47 603.15,-578.74"/>
<polygon fill="black" stroke="black" points="604.55,-581.95 612.67,-575.14 602.08,-575.4 604.55,-581.95"/>
</g>
<!-- n61&#45;&gt;n56 -->
<g id="edge26" class="edge">
<title>n61&#45;&gt;n56</title>
<path fill="none" stroke="#ee4000" d="M830.15,-736.57C830.15,-733.05 830.15,-729.04 830.15,-725.05"/>
<polygon fill="#ee4000" stroke="#ee4000" points="833.65,-724.91 830.15,-714.91 826.65,-724.91 833.65,-724.91"/>
</g>
<!-- n62&#45;&gt;n58 -->
<g id="edge27" class="edge">
<title>n62&#45;&gt;n58</title>
<path fill="none" stroke="#ee4000" d="M188.15,-598.42C188.15,-575.79 188.15,-524.09 188.15,-494.77"/>
<polygon fill="#ee4000" stroke="#ee4000" points="191.65,-494.73 188.15,-484.73 184.65,-494.73 191.65,-494.73"/>
</g>
<!-- n63&#45;&gt;n60 -->
<g id="edge28" class="edge">
<title>n63&#45;&gt;n60</title>
<path fill="none" stroke="#ee4000" d="M662.7,-738.56C641.65,-732.26 613.34,-723.77 589.89,-716.75"/>
<polygon fill="#ee4000" stroke="#ee4000" points="590.75,-713.35 580.17,-713.84 588.75,-720.06 590.75,-713.35"/>
</g>
</g>
</svg>
