<?xml version="1.0" encoding="UTF-8" standalone="no"?>
<!DOCTYPE svg PUBLIC "-//W3C//DTD SVG 1.1//EN"
 "http://www.w3.org/Graphics/SVG/1.1/DTD/svg11.dtd">
<!-- Generated by graphviz version 2.43.0 (0)
 -->
<!-- Title: G Pages: 1 -->
<svg width="686pt" height="410pt"
 viewBox="0.00 0.00 686.03 410.25" xmlns="http://www.w3.org/2000/svg" xmlns:xlink="http://www.w3.org/1999/xlink">
<g id="graph0" class="graph" transform="scale(1 1) rotate(0) translate(4 406.25)">
<title>G</title>
<polygon fill="white" stroke="transparent" points="-4,4 -4,-406.25 682.03,-406.25 682.03,4 -4,4"/>
<!-- n0 -->
<g id="node1" class="node">
<title>n0</title>
<ellipse fill="none" stroke="black" cx="411" cy="-12.02" rx="52.15" ry="12.04"/>
<text text-anchor="middle" x="411" y="-10.12" font-family="Helvetica,sans-Serif" font-size="8.00">#i : iequality[]</text>
</g>
<!-- n1 -->
<g id="node2" class="node">
<title>n1</title>
<ellipse fill="none" stroke="black" cx="398" cy="-284.17" rx="43.27" ry="12.04"/>
<text text-anchor="middle" x="398" y="-282.27" font-family="Helvetica,sans-Serif" font-size="8.00">#vf : isend</text>
</g>
<!-- n8 -->
<g id="node4" class="node">
<title>n8</title>
<polygon fill="#d5d897" stroke="black" points="198,-184.67 198,-235.67 506,-235.67 506,-184.67 198,-184.67"/>
<text text-anchor="middle" x="256" y="-225.27" font-family="Helvetica,sans-Serif" font-size="8.00">!Own( ~pw )</text>
<polyline fill="none" stroke="black" points="314,-218.67 314,-235.67 "/>
<text text-anchor="middle" x="410" y="-225.27" font-family="Helvetica,sans-Serif" font-size="8.00">In( &lt;&#39;01&#39;, random_challenge&gt; )</text>
<polyline fill="none" stroke="black" points="198,-218.67 506,-218.67 "/>
<text text-anchor="middle" x="352" y="-208.27" font-family="Helvetica,sans-Serif" font-size="8.00">#vr : User_response[U1( )]</text>
<polyline fill="none" stroke="black" points="198,-201.67 506,-201.67 "/>
<text text-anchor="middle" x="297" y="-191.27" font-family="Helvetica,sans-Serif" font-size="8.00">Out( &lt;&#39;02&#39;, h(&lt;~pw, random_challenge&gt;)&gt; )</text>
<polyline fill="none" stroke="black" points="396,-184.67 396,-201.67 "/>
<text text-anchor="middle" x="451" y="-191.27" font-family="Helvetica,sans-Serif" font-size="8.00">User_response_done( )</text>
</g>
<!-- n1&#45;&gt;n8 -->
<g id="edge1" class="edge">
<title>n1&#45;&gt;n8:n4</title>
<path fill="none" stroke="#4d4d4d" d="M402.47,-272.16C404.97,-265.26 407.86,-255.9 409.22,-246.4"/>
<polygon fill="#4d4d4d" stroke="#4d4d4d" points="412.73,-246.4 410,-236.17 405.75,-245.87 412.73,-246.4"/>
</g>
<!-- n2 -->
<g id="node3" class="node">
<title>n2</title>
<ellipse fill="none" stroke="black" cx="386" cy="-344.19" rx="143.59" ry="12.04"/>
<text text-anchor="middle" x="386" y="-342.29" font-family="Helvetica,sans-Serif" font-size="8.00">#vk : c_pair[!KU( &lt;&#39;01&#39;, random_challenge&gt; )]</text>
</g>
<!-- n2&#45;&gt;n1 -->
<g id="edge7" class="edge">
<title>n2&#45;&gt;n1</title>
<path fill="none" stroke="black" stroke-dasharray="1,5" d="M388.31,-332C389.82,-324.7 391.84,-314.93 393.65,-306.21"/>
<polygon fill="black" stroke="black" points="397.1,-306.82 395.69,-296.32 390.24,-305.4 397.1,-306.82"/>
</g>
<!-- n10 -->
<g id="node6" class="node">
<title>n10</title>
<ellipse fill="none" stroke="black" cx="297" cy="-104.1" rx="55.31" ry="12.04"/>
<text text-anchor="middle" x="297" y="-102.2" font-family="Helvetica,sans-Serif" font-size="8.00">#vr.1 : d_0_snd</text>
</g>
<!-- n8&#45;&gt;n10 -->
<g id="edge2" class="edge">
<title>n8:n6&#45;&gt;n10</title>
<path fill="none" stroke="#ee4000" d="M297,-184.17C297,-164.73 297,-142.6 297,-126.71"/>
<polygon fill="#ee4000" stroke="#ee4000" points="300.5,-126.36 297,-116.36 293.5,-126.36 300.5,-126.36"/>
</g>
<!-- n9 -->
<g id="node5" class="node">
<title>n9</title>
<ellipse fill="none" stroke="black" cx="357" cy="-390.23" rx="77.15" ry="12.04"/>
<text text-anchor="middle" x="357" y="-388.33" font-family="Helvetica,sans-Serif" font-size="8.00">#vk.1 : pub[!KU( &#39;01&#39; )]</text>
</g>
<!-- n9&#45;&gt;n2 -->
<g id="edge8" class="edge">
<title>n9&#45;&gt;n2</title>
<path fill="none" stroke="black" stroke-dasharray="1,5" d="M364.32,-378.12C366.98,-374.08 370.07,-369.39 373.06,-364.83"/>
<polygon fill="black" stroke="black" points="376.01,-366.73 378.58,-356.45 370.16,-362.88 376.01,-366.73"/>
</g>
<!-- n10&#45;&gt;n0 -->
<g id="edge3" class="edge">
<title>n10&#45;&gt;n0</title>
<path fill="none" stroke="#ee4000" d="M305.91,-92.08C316.16,-79.84 333.91,-59.99 352,-46.04 360.8,-39.25 371.17,-32.96 380.74,-27.74"/>
<polygon fill="#ee4000" stroke="#ee4000" points="382.38,-30.83 389.59,-23.07 379.11,-24.64 382.38,-30.83"/>
</g>
<!-- n11 -->
<g id="node7" class="node">
<title>n11</title>
<ellipse fill="none" stroke="black" cx="515" cy="-58.06" rx="152.06" ry="12.04"/>
<text text-anchor="middle" x="515" y="-56.16" font-family="Helvetica,sans-Serif" font-size="8.00">#vk.2 : c_h[!KU( h(&lt;~pw, random_challenge&gt;) )]</text>
</g>
<!-- n11&#45;&gt;n0 -->
<g id="edge9" class="edge">
<title>n11&#45;&gt;n0</title>
<path fill="none" stroke="black" stroke-dasharray="1,5" d="M489.29,-46.18C475.48,-40.33 458.3,-33.05 443.56,-26.81"/>
<polygon fill="black" stroke="black" points="444.86,-23.56 434.28,-22.88 442.13,-30 444.86,-23.56"/>
</g>
<!-- n15 -->
<g id="node8" class="node">
<title>n15</title>
<polygon fill="#c3da98" stroke="black" points="83.5,-258.67 83.5,-309.67 250.5,-309.67 250.5,-258.67 83.5,-258.67"/>
<text text-anchor="middle" x="167" y="-299.27" font-family="Helvetica,sans-Serif" font-size="8.00">Fr( ~pw )</text>
<polyline fill="none" stroke="black" points="83.5,-292.67 250.5,-292.67 "/>
<text text-anchor="middle" x="167" y="-282.27" font-family="Helvetica,sans-Serif" font-size="8.00">#vr.2 : Password_init[Init_pw_once( )]</text>
<polyline fill="none" stroke="black" points="83.5,-275.67 250.5,-275.67 "/>
<text text-anchor="middle" x="167" y="-265.27" font-family="Helvetica,sans-Serif" font-size="8.00">!Own( ~pw )</text>
</g>
<!-- n15&#45;&gt;n8 -->
<g id="edge4" class="edge">
<title>n15:n14&#45;&gt;n8:n3</title>
<path fill="none" stroke="#7f7f7f" stroke-width="2" d="M252,-267.17C256.02,-267.17 253.42,-261.39 251,-258.17 237.48,-240.16 218.46,-252.7 202.96,-235.66"/>
<polygon fill="#7f7f7f" stroke="#7f7f7f" stroke-width="2" points="205.61,-233.34 197,-227.17 199.88,-237.36 205.61,-233.34"/>
</g>
<!-- n21 -->
<g id="node10" class="node">
<title>n21</title>
<polygon fill="#b1dc9a" stroke="black" points="0,-184.67 0,-235.67 176,-235.67 176,-184.67 0,-184.67"/>
<text text-anchor="middle" x="48.5" y="-225.27" font-family="Helvetica,sans-Serif" font-size="8.00">!Own( ~pw )</text>
<polyline fill="none" stroke="black" points="97,-218.67 97,-235.67 "/>
<text text-anchor="middle" x="136.5" y="-225.27" font-family="Helvetica,sans-Serif" font-size="8.00">Fr( ~rc )</text>
<polyline fill="none" stroke="black" points="0,-218.67 176,-218.67 "/>
<text text-anchor="middle" x="88" y="-208.27" font-family="Helvetica,sans-Serif" font-size="8.00">#vr.3 : Password_guess[Guess_once( )]</text>
<polyline fill="none" stroke="black" points="0,-201.67 176,-201.67 "/>
<text text-anchor="middle" x="88" y="-191.27" font-family="Helvetica,sans-Serif" font-size="8.00">Out( ~pw )</text>
</g>
<!-- n15&#45;&gt;n21 -->
<g id="edge5" class="edge">
<title>n15:n14&#45;&gt;n21:n17</title>
<path fill="none" stroke="#7f7f7f" stroke-width="2" d="M82,-267.17C65.23,-267.17 53.09,-260.07 49.27,-246.23"/>
<polygon fill="#7f7f7f" stroke="#7f7f7f" stroke-width="2" points="52.73,-245.65 48,-236.17 45.78,-246.53 52.73,-245.65"/>
</g>
<!-- n16 -->
<g id="node9" class="node">
<title>n16</title>
<ellipse fill="none" stroke="black" cx="526" cy="-104.1" rx="152.06" ry="12.04"/>
<text text-anchor="middle" x="526" y="-102.2" font-family="Helvetica,sans-Serif" font-size="8.00">#vk.3 : c_pair[!KU( &lt;~pw, random_challenge&gt; )]</text>
</g>
<!-- n16&#45;&gt;n11 -->
<g id="edge10" class="edge">
<title>n16&#45;&gt;n11</title>
<path fill="none" stroke="black" stroke-dasharray="1,5" d="M523.22,-91.99C522.32,-88.37 521.28,-84.22 520.26,-80.11"/>
<polygon fill="black" stroke="black" points="523.63,-79.18 517.81,-70.33 516.84,-80.88 523.63,-79.18"/>
</g>
<!-- n22 -->
<g id="node11" class="node">
<title>n22</title>
<ellipse fill="none" stroke="black" cx="132" cy="-150.15" rx="88.28" ry="12.04"/>
<text text-anchor="middle" x="132" y="-148.25" font-family="Helvetica,sans-Serif" font-size="8.00">#vk.4 : coerce[!KU( ~pw )]</text>
</g>
<!-- n21&#45;&gt;n22 -->
<g id="edge6" class="edge">
<title>n21:n20&#45;&gt;n22</title>
<path fill="none" stroke="#ee4000" d="M88,-184.17C88,-177.59 91.19,-172.15 95.85,-167.73"/>
<polygon fill="#ee4000" stroke="#ee4000" points="98.18,-170.36 104.13,-161.59 94.02,-164.73 98.18,-170.36"/>
</g>
<!-- n22&#45;&gt;n16 -->
<g id="edge11" class="edge">
<title>n22&#45;&gt;n16</title>
<path fill="none" stroke="black" stroke-dasharray="1,5" d="M196.62,-141.92C261.26,-134.7 361.28,-123.52 434.15,-115.37"/>
<polygon fill="black" stroke="black" points="434.7,-118.83 444.25,-114.24 433.92,-111.87 434.7,-118.83"/>
</g>
<!-- n23 -->
<g id="node12" class="node">
<title>n23</title>
<ellipse fill="none" stroke="gray" cx="564" cy="-390.23" rx="108.38" ry="12.04"/>
<text text-anchor="middle" x="564" y="-388.33" font-family="Helvetica,sans-Serif" font-size="8.00">!KU( random_challenge ) @ #vk.5</text>
</g>
<!-- n23&#45;&gt;n2 -->
<g id="edge12" class="edge">
<title>n23&#45;&gt;n2</title>
<path fill="none" stroke="black" stroke-dasharray="1,5" d="M522.72,-379.01C497.67,-372.82 465.47,-364.85 438.61,-358.21"/>
<polygon fill="black" stroke="black" points="439.16,-354.73 428.61,-355.73 437.47,-361.53 439.16,-354.73"/>
</g>
<!-- n23&#45;&gt;n16 -->
<g id="edge13" class="edge">
<title>n23&#45;&gt;n16</title>
<path fill="none" stroke="black" stroke-dasharray="1,5" d="M564,-377.99C564,-358.9 564,-318.95 564,-285.17 564,-285.17 564,-285.17 564,-209.17 564,-178.42 549.19,-145.5 538.06,-125.11"/>
<polygon fill="black" stroke="black" points="540.96,-123.13 532.97,-116.17 534.87,-126.59 540.96,-123.13"/>
</g>
</g>
</svg>
