<?xml version="1.0" encoding="UTF-8" standalone="no"?>
<!DOCTYPE svg PUBLIC "-//W3C//DTD SVG 1.1//EN"
 "http://www.w3.org/Graphics/SVG/1.1/DTD/svg11.dtd">
<!-- Generated by graphviz version 2.43.0 (0)
 -->
<!-- Title: G Pages: 1 -->
<svg width="1717pt" height="721pt"
 viewBox="0.00 0.00 1717.31 720.57" xmlns="http://www.w3.org/2000/svg" xmlns:xlink="http://www.w3.org/1999/xlink">
<g id="graph0" class="graph" transform="scale(1 1) rotate(0) translate(4 716.57)">
<title>G</title>
<polygon fill="white" stroke="transparent" points="-4,4 -4,-716.57 1713.31,-716.57 1713.31,4 -4,4"/>
<!-- n0 -->
<g id="node1" class="node">
<title>n0</title>
<ellipse fill="none" stroke="black" cx="1461.15" cy="-12.02" rx="52.15" ry="12.04"/>
<text text-anchor="middle" x="1461.15" y="-10.12" font-family="Helvetica,sans-Serif" font-size="8.00">#i : iequality[]</text>
</g>
<!-- n1 -->
<g id="node2" class="node">
<title>n1</title>
<ellipse fill="none" stroke="black" cx="1232.15" cy="-520.49" rx="43.27" ry="12.04"/>
<text text-anchor="middle" x="1232.15" y="-518.59" font-family="Helvetica,sans-Serif" font-size="8.00">#vf : isend</text>
</g>
<!-- n9 -->
<g id="node5" class="node">
<title>n9</title>
<polygon fill="#cad998" stroke="black" points="1006.65,-357.99 1006.65,-471.99 1401.65,-471.99 1401.65,-357.99 1006.65,-357.99"/>
<text text-anchor="middle" x="1097.15" y="-461.59" font-family="Helvetica,sans-Serif" font-size="8.00">STA_state_1( ~pw, ~SNonce )</text>
<polyline fill="none" stroke="black" points="1187.65,-454.99 1187.65,-471.99 "/>
<text text-anchor="middle" x="1242.65" y="-461.59" font-family="Helvetica,sans-Serif" font-size="8.00">In( ANonce )</text>
<polyline fill="none" stroke="black" points="1297.65,-454.99 1297.65,-471.99 "/>
<text text-anchor="middle" x="1349.65" y="-461.59" font-family="Helvetica,sans-Serif" font-size="8.00">Fr( ~data )</text>
<polyline fill="none" stroke="black" points="1006.65,-454.99 1401.65,-454.99 "/>
<text text-anchor="middle" x="1204.15" y="-444.59" font-family="Helvetica,sans-Serif" font-size="8.00">#vr : STA_2[]</text>
<polyline fill="none" stroke="black" points="1006.65,-437.99 1401.65,-437.99 "/>
<text text-anchor="start" x="1014.65" y="-427.59" font-family="Helvetica,sans-Serif" font-size="8.00">Out( &lt;~data, </text>
<text text-anchor="start" x="1014.65" y="-418.59" font-family="Helvetica,sans-Serif" font-size="8.00">      HMAC_MD5(SHA1_PRF(pdkdf2_SHA1(~pw, &#39;SSID&#39;, &#39;SSID_length&#39;, &#39;4096&#39;),</text>
<text text-anchor="start" x="1014.65" y="-409.59" font-family="Helvetica,sans-Serif" font-size="8.00">                        Len(pdkdf2_SHA1(~pw, &#39;SSID&#39;, &#39;SSID_length&#39;, &#39;4096&#39;)), &#39;Pairwise_key_expansion&#39;,</text>
<text text-anchor="start" x="1014.65" y="-400.59" font-family="Helvetica,sans-Serif" font-size="8.00">                        Min(&#39;AP_MAC&#39;, &#39;STA_MAC&#39;), Max(&#39;AP_MAC&#39;, &#39;STA_MAC&#39;), Min(ANonce, ~SNonce),</text>
<text text-anchor="start" x="1014.65" y="-391.59" font-family="Helvetica,sans-Serif" font-size="8.00">                        Max(ANonce, ~SNonce)),</text>
<text text-anchor="start" x="1014.65" y="-382.59" font-family="Helvetica,sans-Serif" font-size="8.00">               ~data)</text>
<text text-anchor="start" x="1014.65" y="-373.59" font-family="Helvetica,sans-Serif" font-size="8.00">     &gt;</text>
<text text-anchor="start" x="1014.65" y="-364.59" font-family="Helvetica,sans-Serif" font-size="8.00">)</text>
</g>
<!-- n1&#45;&gt;n9 -->
<g id="edge1" class="edge">
<title>n1&#45;&gt;n9:n5</title>
<path fill="none" stroke="#4d4d4d" d="M1236.25,-508.45C1238.55,-501.54 1241.19,-492.16 1242.44,-482.69"/>
<polygon fill="#4d4d4d" stroke="#4d4d4d" points="1245.94,-482.71 1243.15,-472.49 1238.96,-482.22 1245.94,-482.71"/>
</g>
<!-- n2 -->
<g id="node3" class="node">
<title>n2</title>
<ellipse fill="none" stroke="black" cx="931.15" cy="-654.51" rx="120.83" ry="12.04"/>
<text text-anchor="middle" x="931.15" y="-652.61" font-family="Helvetica,sans-Serif" font-size="8.00">#vk : c_pair[!KU( &lt;&#39;SSID&#39;, &#39;AP_MAC&#39;&gt; )]</text>
</g>
<!-- n20 -->
<g id="node10" class="node">
<title>n20</title>
<ellipse fill="none" stroke="black" cx="992.15" cy="-594.49" rx="48.17" ry="12.04"/>
<text text-anchor="middle" x="992.15" y="-592.59" font-family="Helvetica,sans-Serif" font-size="8.00">#vf.3 : isend</text>
</g>
<!-- n2&#45;&gt;n20 -->
<g id="edge14" class="edge">
<title>n2&#45;&gt;n20</title>
<path fill="none" stroke="black" stroke-dasharray="1,5" d="M942.91,-642.32C951.55,-634.11 963.45,-622.79 973.39,-613.33"/>
<polygon fill="black" stroke="black" points="976.01,-615.68 980.84,-606.25 971.18,-610.6 976.01,-615.68"/>
</g>
<!-- n3 -->
<g id="node4" class="node">
<title>n3</title>
<ellipse fill="none" stroke="black" cx="1568.15" cy="-323.47" rx="40.11" ry="12.04"/>
<text text-anchor="middle" x="1568.15" y="-321.57" font-family="Helvetica,sans-Serif" font-size="8.00">#vl : irecv</text>
</g>
<!-- n11 -->
<g id="node7" class="node">
<title>n11</title>
<ellipse fill="none" stroke="black" cx="1654.15" cy="-96.25" rx="55.31" ry="12.04"/>
<text text-anchor="middle" x="1654.15" y="-94.35" font-family="Helvetica,sans-Serif" font-size="8.00">#vr.1 : d_0_snd</text>
</g>
<!-- n3&#45;&gt;n11 -->
<g id="edge2" class="edge">
<title>n3&#45;&gt;n11</title>
<path fill="none" stroke="#ee4000" d="M1595.8,-314.61C1608.61,-309.53 1622.81,-301.54 1631.15,-289.45 1667.44,-236.81 1662.5,-156.28 1657.56,-118.37"/>
<polygon fill="#ee4000" stroke="#ee4000" points="1661.03,-117.86 1656.14,-108.46 1654.1,-118.85 1661.03,-117.86"/>
</g>
<!-- n33 -->
<g id="node16" class="node">
<title>n33</title>
<ellipse fill="none" stroke="black" cx="1568.15" cy="-277.42" rx="52.15" ry="12.04"/>
<text text-anchor="middle" x="1568.15" y="-275.52" font-family="Helvetica,sans-Serif" font-size="8.00">#vr.5 : d_0_fst</text>
</g>
<!-- n3&#45;&gt;n33 -->
<g id="edge3" class="edge">
<title>n3&#45;&gt;n33</title>
<path fill="none" stroke="#ee4000" d="M1568.15,-311.35C1568.15,-307.83 1568.15,-303.82 1568.15,-299.83"/>
<polygon fill="#ee4000" stroke="#ee4000" points="1571.65,-299.69 1568.15,-289.69 1564.65,-299.69 1571.65,-299.69"/>
</g>
<!-- n9&#45;&gt;n3 -->
<g id="edge4" class="edge">
<title>n9:n8&#45;&gt;n3</title>
<path fill="none" stroke="#4d4d4d" d="M1403.15,-397.99C1458.81,-397.99 1516.6,-362.65 1546.82,-340.97"/>
<polygon fill="#4d4d4d" stroke="#4d4d4d" points="1548.95,-343.75 1554.93,-335 1544.8,-338.11 1548.95,-343.75"/>
</g>
<!-- n10 -->
<g id="node6" class="node">
<title>n10</title>
<ellipse fill="none" stroke="black" cx="1269.15" cy="-96.25" rx="307.68" ry="50.41"/>
<text text-anchor="start" x="1059.65" y="-121.35" font-family="Helvetica,sans-Serif" font-size="8.00">#vk.1 : c_HMAC_MD5[!KU( HMAC_MD5(SHA1_PRF(pdkdf2_SHA1(~pw, &#39;SSID&#39;, &#39;SSID_length&#39;,</text>
<text text-anchor="start" x="1059.65" y="-112.35" font-family="Helvetica,sans-Serif" font-size="8.00">                                                      &#39;4096&#39;),</text>
<text text-anchor="start" x="1059.65" y="-103.35" font-family="Helvetica,sans-Serif" font-size="8.00">                                          Len(pdkdf2_SHA1(~pw, &#39;SSID&#39;, &#39;SSID_length&#39;, &#39;4096&#39;)), &#39;Pairwise_key_expansion&#39;,</text>
<text text-anchor="start" x="1059.65" y="-94.35" font-family="Helvetica,sans-Serif" font-size="8.00">                                          Min(&#39;AP_MAC&#39;, &#39;STA_MAC&#39;), Max(&#39;AP_MAC&#39;, &#39;STA_MAC&#39;), Min(ANonce, ~SNonce),</text>
<text text-anchor="start" x="1059.65" y="-85.35" font-family="Helvetica,sans-Serif" font-size="8.00">                                          Max(ANonce, ~SNonce)),</text>
<text text-anchor="start" x="1059.65" y="-76.35" font-family="Helvetica,sans-Serif" font-size="8.00">                                 ~data)</text>
<text text-anchor="start" x="1059.65" y="-67.35" font-family="Helvetica,sans-Serif" font-size="8.00">                   )]</text>
</g>
<!-- n10&#45;&gt;n0 -->
<g id="edge15" class="edge">
<title>n10&#45;&gt;n0</title>
<path fill="none" stroke="black" stroke-dasharray="1,5" d="M1376.66,-49.21C1395.6,-41.1 1413.93,-33.25 1428.65,-26.94"/>
<polygon fill="black" stroke="black" points="1430.41,-29.99 1438.23,-22.84 1427.66,-23.56 1430.41,-29.99"/>
</g>
<!-- n11&#45;&gt;n0 -->
<g id="edge5" class="edge">
<title>n11&#45;&gt;n0</title>
<path fill="none" stroke="#ee4000" d="M1642.43,-84.27C1629.91,-73.1 1609.03,-56.06 1588.15,-46.04 1564.34,-34.61 1536.05,-26.76 1512.22,-21.59"/>
<polygon fill="#ee4000" stroke="#ee4000" points="1512.81,-18.14 1502.31,-19.54 1511.39,-25 1512.81,-18.14"/>
</g>
<!-- n12 -->
<g id="node8" class="node">
<title>n12</title>
<ellipse fill="none" stroke="black" cx="1000.15" cy="-205.93" rx="293.4" ry="37.45"/>
<text text-anchor="start" x="800.65" y="-222.03" font-family="Helvetica,sans-Serif" font-size="8.00">#vk.2 : c_SHA1_PRF[!KU( SHA1_PRF(pdkdf2_SHA1(~pw, &#39;SSID&#39;, &#39;SSID_length&#39;, &#39;4096&#39;),</text>
<text text-anchor="start" x="800.65" y="-213.03" font-family="Helvetica,sans-Serif" font-size="8.00">                                 Len(pdkdf2_SHA1(~pw, &#39;SSID&#39;, &#39;SSID_length&#39;, &#39;4096&#39;)), &#39;Pairwise_key_expansion&#39;,</text>
<text text-anchor="start" x="800.65" y="-204.03" font-family="Helvetica,sans-Serif" font-size="8.00">                                 Min(&#39;AP_MAC&#39;, &#39;STA_MAC&#39;), Max(&#39;AP_MAC&#39;, &#39;STA_MAC&#39;), Min(ANonce, ~SNonce),</text>
<text text-anchor="start" x="800.65" y="-195.03" font-family="Helvetica,sans-Serif" font-size="8.00">                                 Max(ANonce, ~SNonce))</text>
<text text-anchor="start" x="800.65" y="-186.03" font-family="Helvetica,sans-Serif" font-size="8.00">                   )]</text>
</g>
<!-- n12&#45;&gt;n10 -->
<g id="edge16" class="edge">
<title>n12&#45;&gt;n10</title>
<path fill="none" stroke="black" stroke-dasharray="1,5" d="M1087.12,-170.12C1105.8,-162.64 1125.89,-154.59 1145.66,-146.68"/>
<polygon fill="black" stroke="black" points="1147.04,-149.9 1155.02,-142.93 1144.44,-143.4 1147.04,-149.9"/>
</g>
<!-- n19 -->
<g id="node9" class="node">
<title>n19</title>
<polygon fill="#bfda99" stroke="black" points="793.65,-494.99 793.65,-545.99 1068.65,-545.99 1068.65,-494.99 793.65,-494.99"/>
<text text-anchor="middle" x="831.15" y="-535.59" font-family="Helvetica,sans-Serif" font-size="8.00">!Own( ~pw )</text>
<polyline fill="none" stroke="black" points="868.65,-528.99 868.65,-545.99 "/>
<text text-anchor="middle" x="908.65" y="-535.59" font-family="Helvetica,sans-Serif" font-size="8.00">Fr( ~SNonce )</text>
<polyline fill="none" stroke="black" points="948.65,-528.99 948.65,-545.99 "/>
<text text-anchor="middle" x="1008.65" y="-535.59" font-family="Helvetica,sans-Serif" font-size="8.00">In( &lt;&#39;SSID&#39;, &#39;AP_MAC&#39;&gt; )</text>
<polyline fill="none" stroke="black" points="793.65,-528.99 1068.65,-528.99 "/>
<text text-anchor="middle" x="931.15" y="-518.59" font-family="Helvetica,sans-Serif" font-size="8.00">#vr.2 : STA_1[]</text>
<polyline fill="none" stroke="black" points="793.65,-511.99 1068.65,-511.99 "/>
<text text-anchor="middle" x="862.65" y="-501.59" font-family="Helvetica,sans-Serif" font-size="8.00">Out( &lt;~SNonce, &#39;STA_MAC&#39;&gt; )</text>
<polyline fill="none" stroke="black" points="931.65,-494.99 931.65,-511.99 "/>
<text text-anchor="middle" x="1000.15" y="-501.59" font-family="Helvetica,sans-Serif" font-size="8.00">STA_state_1( ~pw, ~SNonce )</text>
</g>
<!-- n19&#45;&gt;n9 -->
<g id="edge7" class="edge">
<title>n19:n18&#45;&gt;n9:n4</title>
<path fill="none" stroke="black" stroke-width="2" d="M1070.15,-503.49C1074.18,-503.49 1071.66,-497.64 1069.15,-494.49 1052.55,-473.65 1029.91,-491.17 1011.29,-472"/>
<polygon fill="black" stroke="black" stroke-width="2" points="1014.01,-469.8 1005.15,-463.99 1008.46,-474.05 1014.01,-469.8"/>
</g>
<!-- n35 -->
<g id="node18" class="node">
<title>n35</title>
<ellipse fill="none" stroke="black" cx="840.15" cy="-414.99" rx="52.15" ry="12.04"/>
<text text-anchor="middle" x="840.15" y="-413.09" font-family="Helvetica,sans-Serif" font-size="8.00">#vr.6 : d_0_fst</text>
</g>
<!-- n19&#45;&gt;n35 -->
<g id="edge6" class="edge">
<title>n19:n17&#45;&gt;n35</title>
<path fill="none" stroke="#ee4000" d="M862.15,-494.49C862.15,-474.36 855.37,-452.38 849.33,-436.81"/>
<polygon fill="#ee4000" stroke="#ee4000" points="852.4,-435.07 845.37,-427.15 845.93,-437.73 852.4,-435.07"/>
</g>
<!-- n20&#45;&gt;n19 -->
<g id="edge8" class="edge">
<title>n20&#45;&gt;n19:n15</title>
<path fill="none" stroke="#4d4d4d" d="M998.68,-582.31C1002.23,-575.42 1006.28,-566.1 1008.13,-556.5"/>
<polygon fill="#4d4d4d" stroke="#4d4d4d" points="1011.62,-556.79 1009.15,-546.49 1004.66,-556.08 1011.62,-556.79"/>
</g>
<!-- n21 -->
<g id="node11" class="node">
<title>n21</title>
<ellipse fill="none" stroke="black" cx="369.15" cy="-323.47" rx="236.76" ry="12.04"/>
<text text-anchor="middle" x="369.15" y="-321.57" font-family="Helvetica,sans-Serif" font-size="8.00">#vk.3 : c_pdkdf2_SHA1[!KU( pdkdf2_SHA1(~pw, &#39;SSID&#39;, &#39;SSID_length&#39;, &#39;4096&#39;) )]</text>
</g>
<!-- n21&#45;&gt;n12 -->
<g id="edge17" class="edge">
<title>n21&#45;&gt;n12</title>
<path fill="none" stroke="black" stroke-dasharray="1,5" d="M402.05,-311.55C419.27,-305.55 440.58,-297.66 459.15,-289.45 480.25,-280.11 483.11,-272.21 505.15,-265.4 573.46,-244.31 649.23,-230.73 720.53,-222.03"/>
<polygon fill="black" stroke="black" points="721.05,-225.49 730.56,-220.83 720.22,-218.54 721.05,-225.49"/>
</g>
<!-- n32 -->
<g id="node15" class="node">
<title>n32</title>
<ellipse fill="none" stroke="black" cx="224.15" cy="-277.42" rx="224.31" ry="12.04"/>
<text text-anchor="middle" x="224.15" y="-275.52" font-family="Helvetica,sans-Serif" font-size="8.00">#vk.5 : c_Len[!KU( Len(pdkdf2_SHA1(~pw, &#39;SSID&#39;, &#39;SSID_length&#39;, &#39;4096&#39;)) )]</text>
</g>
<!-- n21&#45;&gt;n32 -->
<g id="edge18" class="edge">
<title>n21&#45;&gt;n32</title>
<path fill="none" stroke="black" stroke-dasharray="1,5" d="M333.31,-311.58C314.14,-305.76 290.33,-298.52 269.84,-292.3"/>
<polygon fill="black" stroke="black" points="270.67,-288.9 260.09,-289.34 268.64,-295.59 270.67,-288.9"/>
</g>
<!-- n25 -->
<g id="node12" class="node">
<title>n25</title>
<polygon fill="#b4db99" stroke="black" points="653.65,-568.99 653.65,-619.99 820.65,-619.99 820.65,-568.99 653.65,-568.99"/>
<text text-anchor="middle" x="737.15" y="-609.59" font-family="Helvetica,sans-Serif" font-size="8.00">Fr( ~pw )</text>
<polyline fill="none" stroke="black" points="653.65,-602.99 820.65,-602.99 "/>
<text text-anchor="middle" x="737.15" y="-592.59" font-family="Helvetica,sans-Serif" font-size="8.00">#vr.3 : Password_init[Init_pw_once( )]</text>
<polyline fill="none" stroke="black" points="653.65,-585.99 820.65,-585.99 "/>
<text text-anchor="middle" x="737.15" y="-575.59" font-family="Helvetica,sans-Serif" font-size="8.00">!Own( ~pw )</text>
</g>
<!-- n25&#45;&gt;n19 -->
<g id="edge9" class="edge">
<title>n25:n24&#45;&gt;n19:n13</title>
<path fill="none" stroke="#7f7f7f" stroke-width="2" d="M822.15,-577.49C826.18,-577.49 823.11,-572 821.15,-568.49 814.72,-556.93 804.85,-558.98 796.71,-546.64"/>
<polygon fill="#7f7f7f" stroke="#7f7f7f" stroke-width="2" points="799.74,-544.88 792.15,-537.49 793.48,-548 799.74,-544.88"/>
</g>
<!-- n31 -->
<g id="node14" class="node">
<title>n31</title>
<polygon fill="#a9dc9a" stroke="black" points="595.15,-494.99 595.15,-545.99 771.15,-545.99 771.15,-494.99 595.15,-494.99"/>
<text text-anchor="middle" x="643.65" y="-535.59" font-family="Helvetica,sans-Serif" font-size="8.00">!Own( ~pw )</text>
<polyline fill="none" stroke="black" points="692.15,-528.99 692.15,-545.99 "/>
<text text-anchor="middle" x="731.65" y="-535.59" font-family="Helvetica,sans-Serif" font-size="8.00">Fr( ~rc )</text>
<polyline fill="none" stroke="black" points="595.15,-528.99 771.15,-528.99 "/>
<text text-anchor="middle" x="683.15" y="-518.59" font-family="Helvetica,sans-Serif" font-size="8.00">#vr.4 : Password_guess[Guess_once( )]</text>
<polyline fill="none" stroke="black" points="595.15,-511.99 771.15,-511.99 "/>
<text text-anchor="middle" x="683.15" y="-501.59" font-family="Helvetica,sans-Serif" font-size="8.00">Out( ~pw )</text>
</g>
<!-- n25&#45;&gt;n31 -->
<g id="edge10" class="edge">
<title>n25:n24&#45;&gt;n31:n27</title>
<path fill="none" stroke="#7f7f7f" stroke-width="2" d="M652.15,-577.49C641.17,-577.49 641.73,-567.73 642.59,-556.71"/>
<polygon fill="#7f7f7f" stroke="#7f7f7f" stroke-width="2" points="646.1,-556.66 643.15,-546.49 639.11,-556.28 646.1,-556.66"/>
</g>
<!-- n26 -->
<g id="node13" class="node">
<title>n26</title>
<ellipse fill="none" stroke="black" cx="677.15" cy="-414.99" rx="88.28" ry="12.04"/>
<text text-anchor="middle" x="677.15" y="-413.09" font-family="Helvetica,sans-Serif" font-size="8.00">#vk.4 : coerce[!KU( ~pw )]</text>
</g>
<!-- n26&#45;&gt;n21 -->
<g id="edge19" class="edge">
<title>n26&#45;&gt;n21</title>
<path fill="none" stroke="black" stroke-dasharray="1,5" d="M661.71,-402.93C642.75,-389.91 609.16,-368.66 577.15,-357.49 548.77,-347.58 517.17,-340.63 487.35,-335.76"/>
<polygon fill="black" stroke="black" points="487.73,-332.28 477.31,-334.19 486.64,-339.19 487.73,-332.28"/>
</g>
<!-- n31&#45;&gt;n26 -->
<g id="edge11" class="edge">
<title>n31:n30&#45;&gt;n26</title>
<path fill="none" stroke="#ee4000" d="M683.15,-494.49C683.15,-475.13 681.32,-453.16 679.68,-437.4"/>
<polygon fill="#ee4000" stroke="#ee4000" points="683.12,-436.7 678.54,-427.15 676.16,-437.47 683.12,-436.7"/>
</g>
<!-- n32&#45;&gt;n12 -->
<g id="edge20" class="edge">
<title>n32&#45;&gt;n12</title>
<path fill="none" stroke="black" stroke-dasharray="1,5" d="M331.24,-266.83C439.65,-257.13 611.12,-241.77 753.31,-229.03"/>
<polygon fill="black" stroke="black" points="753.85,-232.5 763.5,-228.12 753.22,-225.53 753.85,-232.5"/>
</g>
<!-- n37 -->
<g id="node20" class="node">
<title>n37</title>
<ellipse fill="none" stroke="black" cx="1487.15" cy="-205.93" rx="92.76" ry="12.04"/>
<text text-anchor="middle" x="1487.15" y="-204.03" font-family="Helvetica,sans-Serif" font-size="8.00">#vk.8 : coerce[!KU( ~data )]</text>
</g>
<!-- n33&#45;&gt;n37 -->
<g id="edge12" class="edge">
<title>n33&#45;&gt;n37</title>
<path fill="none" stroke="#ee4000" d="M1555.5,-265.57C1542.73,-254.61 1522.82,-237.53 1507.77,-224.62"/>
<polygon fill="#ee4000" stroke="#ee4000" points="1509.86,-221.79 1499.99,-217.94 1505.3,-227.11 1509.86,-221.79"/>
</g>
<!-- n34 -->
<g id="node17" class="node">
<title>n34</title>
<ellipse fill="none" stroke="black" cx="960.15" cy="-277.42" rx="137.77" ry="12.04"/>
<text text-anchor="middle" x="960.15" y="-275.52" font-family="Helvetica,sans-Serif" font-size="8.00">#vk.6 : c_Min[!KU( Min(ANonce, ~SNonce) )]</text>
</g>
<!-- n34&#45;&gt;n12 -->
<g id="edge21" class="edge">
<title>n34&#45;&gt;n12</title>
<path fill="none" stroke="black" stroke-dasharray="1,5" d="M966.58,-265.26C968.76,-261.47 971.35,-256.97 974.11,-252.18"/>
<polygon fill="black" stroke="black" points="977.25,-253.74 979.2,-243.33 971.18,-250.25 977.25,-253.74"/>
</g>
<!-- n38 -->
<g id="node21" class="node">
<title>n38</title>
<ellipse fill="none" stroke="black" cx="1062.15" cy="-323.47" rx="101.65" ry="12.04"/>
<text text-anchor="middle" x="1062.15" y="-321.57" font-family="Helvetica,sans-Serif" font-size="8.00">#vk.9 : coerce[!KU( ~SNonce )]</text>
</g>
<!-- n35&#45;&gt;n38 -->
<g id="edge13" class="edge">
<title>n35&#45;&gt;n38</title>
<path fill="none" stroke="#ee4000" d="M858.86,-403.65C881.29,-391.54 920.21,-371.36 955.15,-357.49 974.14,-349.95 995.58,-343.03 1014.25,-337.5"/>
<polygon fill="#ee4000" stroke="#ee4000" points="1015.39,-340.81 1024.02,-334.65 1013.44,-334.09 1015.39,-340.81"/>
</g>
<!-- n36 -->
<g id="node19" class="node">
<title>n36</title>
<ellipse fill="none" stroke="black" cx="1261.15" cy="-277.42" rx="141.34" ry="12.04"/>
<text text-anchor="middle" x="1261.15" y="-275.52" font-family="Helvetica,sans-Serif" font-size="8.00">#vk.7 : c_Max[!KU( Max(ANonce, ~SNonce) )]</text>
</g>
<!-- n36&#45;&gt;n12 -->
<g id="edge22" class="edge">
<title>n36&#45;&gt;n12</title>
<path fill="none" stroke="black" stroke-dasharray="1,5" d="M1221.51,-265.87C1197.8,-259.56 1166.14,-251.12 1134.19,-242.62"/>
<polygon fill="black" stroke="black" points="1134.84,-239.17 1124.28,-239.98 1133.04,-245.93 1134.84,-239.17"/>
</g>
<!-- n37&#45;&gt;n10 -->
<g id="edge23" class="edge">
<title>n37&#45;&gt;n10</title>
<path fill="none" stroke="black" stroke-dasharray="1,5" d="M1465.45,-194.21C1443.56,-183.39 1408.09,-165.87 1373.29,-148.68"/>
<polygon fill="black" stroke="black" points="1374.5,-145.38 1363.99,-144.09 1371.4,-151.66 1374.5,-145.38"/>
</g>
<!-- n38&#45;&gt;n34 -->
<g id="edge24" class="edge">
<title>n38&#45;&gt;n34</title>
<path fill="none" stroke="black" stroke-dasharray="1,5" d="M1037.2,-311.69C1024.45,-306.19 1008.74,-299.4 994.83,-293.4"/>
<polygon fill="black" stroke="black" points="996.12,-290.14 985.56,-289.39 993.35,-296.57 996.12,-290.14"/>
</g>
<!-- n38&#45;&gt;n36 -->
<g id="edge25" class="edge">
<title>n38&#45;&gt;n36</title>
<path fill="none" stroke="black" stroke-dasharray="1,5" d="M1106.81,-312.58C1135.66,-306.2 1173.46,-297.83 1204.42,-290.98"/>
<polygon fill="black" stroke="black" points="1205.21,-294.39 1214.22,-288.81 1203.7,-287.56 1205.21,-294.39"/>
</g>
<!-- n39 -->
<g id="node22" class="node">
<title>n39</title>
<ellipse fill="none" stroke="black" cx="1220.15" cy="-654.51" rx="145.83" ry="12.04"/>
<text text-anchor="middle" x="1220.15" y="-652.61" font-family="Helvetica,sans-Serif" font-size="8.00">#vk.10 : c_Min[!KU( Min(&#39;AP_MAC&#39;, &#39;STA_MAC&#39;) )]</text>
</g>
<!-- n39&#45;&gt;n12 -->
<g id="edge26" class="edge">
<title>n39&#45;&gt;n12</title>
<path fill="none" stroke="black" stroke-dasharray="1,5" d="M1279.75,-643.48C1343.68,-628.9 1436.15,-595.1 1436.15,-521.49 1436.15,-521.49 1436.15,-521.49 1436.15,-322.47 1436.15,-295.12 1434.68,-282.26 1413.15,-265.4 1388.49,-246.1 1333.34,-233.16 1271.13,-224.5"/>
<polygon fill="black" stroke="black" points="1271.47,-221.01 1261.09,-223.14 1270.53,-227.95 1271.47,-221.01"/>
</g>
<!-- n40 -->
<g id="node23" class="node">
<title>n40</title>
<ellipse fill="none" stroke="black" cx="1537.15" cy="-654.51" rx="149.4" ry="12.04"/>
<text text-anchor="middle" x="1537.15" y="-652.61" font-family="Helvetica,sans-Serif" font-size="8.00">#vk.11 : c_Max[!KU( Max(&#39;AP_MAC&#39;, &#39;STA_MAC&#39;) )]</text>
</g>
<!-- n40&#45;&gt;n12 -->
<g id="edge27" class="edge">
<title>n40&#45;&gt;n12</title>
<path fill="none" stroke="black" stroke-dasharray="1,5" d="M1529.04,-642.5C1513.74,-620.64 1482.15,-569.66 1482.15,-521.49 1482.15,-521.49 1482.15,-521.49 1482.15,-322.47 1482.15,-290.71 1466.57,-281.42 1439.15,-265.4 1407.81,-247.09 1339.85,-234.33 1266.56,-225.52"/>
<polygon fill="black" stroke="black" points="1266.52,-221.99 1256.18,-224.3 1265.71,-228.94 1266.52,-221.99"/>
</g>
<!-- n41 -->
<g id="node24" class="node">
<title>n41</title>
<ellipse fill="none" stroke="black" cx="525.15" cy="-700.55" rx="86.03" ry="12.04"/>
<text text-anchor="middle" x="525.15" y="-698.65" font-family="Helvetica,sans-Serif" font-size="8.00">#vk.12 : pub[!KU( &#39;SSID&#39; )]</text>
</g>
<!-- n41&#45;&gt;n2 -->
<g id="edge28" class="edge">
<title>n41&#45;&gt;n2</title>
<path fill="none" stroke="black" stroke-dasharray="1,5" d="M589.93,-692.52C658.82,-685.05 768.14,-673.19 844.42,-664.92"/>
<polygon fill="black" stroke="black" points="844.92,-668.38 854.48,-663.82 844.17,-661.42 844.92,-668.38"/>
</g>
<!-- n41&#45;&gt;n21 -->
<g id="edge29" class="edge">
<title>n41&#45;&gt;n21</title>
<path fill="none" stroke="black" stroke-dasharray="1,5" d="M446.87,-695.37C328.89,-686.9 119.15,-662.43 119.15,-595.49 119.15,-595.49 119.15,-595.49 119.15,-519.49 119.15,-446.77 90.82,-409 142.15,-357.49 153.01,-346.59 178,-339.26 207.59,-334.34"/>
<polygon fill="black" stroke="black" points="208.44,-337.75 217.79,-332.76 207.37,-330.84 208.44,-337.75"/>
</g>
<!-- n42 -->
<g id="node25" class="node">
<title>n42</title>
<ellipse fill="none" stroke="black" cx="1220.15" cy="-700.55" rx="94.51" ry="12.04"/>
<text text-anchor="middle" x="1220.15" y="-698.65" font-family="Helvetica,sans-Serif" font-size="8.00">#vk.13 : pub[!KU( &#39;AP_MAC&#39; )]</text>
</g>
<!-- n42&#45;&gt;n2 -->
<g id="edge30" class="edge">
<title>n42&#45;&gt;n2</title>
<path fill="none" stroke="black" stroke-dasharray="1,5" d="M1163.4,-690.9C1117.42,-683.89 1052.36,-673.98 1002.79,-666.42"/>
<polygon fill="black" stroke="black" points="1003.19,-662.95 992.77,-664.9 1002.13,-669.87 1003.19,-662.95"/>
</g>
<!-- n42&#45;&gt;n39 -->
<g id="edge31" class="edge">
<title>n42&#45;&gt;n39</title>
<path fill="none" stroke="black" stroke-dasharray="1,5" d="M1220.15,-688.44C1220.15,-684.92 1220.15,-680.9 1220.15,-676.91"/>
<polygon fill="black" stroke="black" points="1223.65,-676.77 1220.15,-666.77 1216.65,-676.77 1223.65,-676.77"/>
</g>
<!-- n42&#45;&gt;n40 -->
<g id="edge32" class="edge">
<title>n42&#45;&gt;n40</title>
<path fill="none" stroke="black" stroke-dasharray="1,5" d="M1280.15,-691.21C1330.42,-684.23 1402.6,-674.2 1457.67,-666.55"/>
<polygon fill="black" stroke="black" points="1458.32,-669.99 1467.74,-665.15 1457.36,-663.06 1458.32,-669.99"/>
</g>
<!-- n43 -->
<g id="node26" class="node">
<title>n43</title>
<ellipse fill="none" stroke="black" cx="658.15" cy="-277.42" rx="142.26" ry="12.04"/>
<text text-anchor="middle" x="658.15" y="-275.52" font-family="Helvetica,sans-Serif" font-size="8.00">#vk.14 : pub[!KU( &#39;Pairwise_key_expansion&#39; )]</text>
</g>
<!-- n43&#45;&gt;n12 -->
<g id="edge33" class="edge">
<title>n43&#45;&gt;n12</title>
<path fill="none" stroke="black" stroke-dasharray="1,5" d="M708.62,-266.17C742.96,-259.19 790.51,-249.53 837.25,-240.03"/>
<polygon fill="black" stroke="black" points="838.1,-243.43 847.21,-238.01 836.71,-236.57 838.1,-243.43"/>
</g>
<!-- n44 -->
<g id="node27" class="node">
<title>n44</title>
<ellipse fill="none" stroke="black" cx="260.15" cy="-414.99" rx="107.46" ry="12.04"/>
<text text-anchor="middle" x="260.15" y="-413.09" font-family="Helvetica,sans-Serif" font-size="8.00">#vk.15 : pub[!KU( &#39;SSID_length&#39; )]</text>
</g>
<!-- n44&#45;&gt;n21 -->
<g id="edge34" class="edge">
<title>n44&#45;&gt;n21</title>
<path fill="none" stroke="black" stroke-dasharray="1,5" d="M273.52,-403.01C292.07,-387.78 325.82,-360.06 347.86,-341.95"/>
<polygon fill="black" stroke="black" points="350.17,-344.58 355.68,-335.53 345.73,-339.18 350.17,-344.58"/>
</g>
<!-- n45 -->
<g id="node28" class="node">
<title>n45</title>
<ellipse fill="none" stroke="black" cx="478.15" cy="-414.99" rx="88.28" ry="12.04"/>
<text text-anchor="middle" x="478.15" y="-413.09" font-family="Helvetica,sans-Serif" font-size="8.00">#vk.16 : pub[!KU( &#39;4096&#39; )]</text>
</g>
<!-- n45&#45;&gt;n21 -->
<g id="edge35" class="edge">
<title>n45&#45;&gt;n21</title>
<path fill="none" stroke="black" stroke-dasharray="1,5" d="M464.79,-403.01C446.24,-387.78 412.49,-360.06 390.45,-341.95"/>
<polygon fill="black" stroke="black" points="392.58,-339.18 382.63,-335.53 388.13,-344.58 392.58,-339.18"/>
</g>
<!-- n46 -->
<g id="node29" class="node">
<title>n46</title>
<ellipse fill="none" stroke="black" cx="1486.15" cy="-700.55" rx="98.99" ry="12.04"/>
<text text-anchor="middle" x="1486.15" y="-698.65" font-family="Helvetica,sans-Serif" font-size="8.00">#vk.17 : pub[!KU( &#39;STA_MAC&#39; )]</text>
</g>
<!-- n46&#45;&gt;n39 -->
<g id="edge36" class="edge">
<title>n46&#45;&gt;n39</title>
<path fill="none" stroke="black" stroke-dasharray="1,5" d="M1431.36,-690.48C1390.58,-683.73 1334.6,-674.46 1290.51,-667.16"/>
<polygon fill="black" stroke="black" points="1290.87,-663.67 1280.44,-665.49 1289.73,-670.58 1290.87,-663.67"/>
</g>
<!-- n46&#45;&gt;n40 -->
<g id="edge37" class="edge">
<title>n46&#45;&gt;n40</title>
<path fill="none" stroke="black" stroke-dasharray="1,5" d="M1499.02,-688.44C1504.3,-683.88 1510.54,-678.49 1516.42,-673.41"/>
<polygon fill="black" stroke="black" points="1518.83,-675.96 1524.11,-666.77 1514.25,-670.66 1518.83,-675.96"/>
</g>
<!-- n47 -->
<g id="node30" class="node">
<title>n47</title>
<ellipse fill="none" stroke="gray" cx="1149.15" cy="-594.49" rx="80.72" ry="12.04"/>
<text text-anchor="middle" x="1149.15" y="-592.59" font-family="Helvetica,sans-Serif" font-size="8.00">!KU( ANonce ) @ #vk.18</text>
</g>
<!-- n47&#45;&gt;n1 -->
<g id="edge38" class="edge">
<title>n47&#45;&gt;n1</title>
<path fill="none" stroke="black" stroke-dasharray="1,5" d="M1161.76,-582.55C1175.2,-570.89 1196.66,-552.27 1212.36,-538.66"/>
<polygon fill="black" stroke="black" points="1214.71,-541.25 1219.97,-532.06 1210.12,-535.96 1214.71,-541.25"/>
</g>
<!-- n47&#45;&gt;n34 -->
<g id="edge39" class="edge">
<title>n47&#45;&gt;n34</title>
<path fill="none" stroke="black" stroke-dasharray="1,5" d="M1141.84,-582.17C1125.75,-557.41 1088,-500.19 1079.15,-494.49 1035.79,-466.51 1000.26,-510.31 965.15,-472.49 916.22,-419.77 937.64,-382.44 949.15,-311.45 949.82,-307.34 950.92,-303.05 952.18,-298.97"/>
<polygon fill="black" stroke="black" points="955.49,-300.1 955.47,-289.51 948.88,-297.81 955.49,-300.1"/>
</g>
<!-- n47&#45;&gt;n36 -->
<g id="edge40" class="edge">
<title>n47&#45;&gt;n36</title>
<path fill="none" stroke="black" stroke-dasharray="1,5" d="M1149.43,-582.32C1149.28,-561.64 1145.78,-517.42 1120.15,-494.49 1078.12,-456.87 1031.42,-515.69 995.15,-472.49 962.29,-433.34 961.28,-395.76 995.15,-357.49 1021.86,-327.31 1137.35,-349.45 1175.15,-335.49 1199.63,-326.45 1224.09,-309.23 1240.63,-296.06"/>
<polygon fill="black" stroke="black" points="1242.99,-298.65 1248.51,-289.61 1238.56,-293.23 1242.99,-298.65"/>
</g>
</g>
</svg>
